<svg id="Layer_2" data-name="Layer 2" xmlns="http://www.w3.org/2000/svg" viewBox="0 0 48 48"><defs><style>.cls-1,.cls-2{fill:none;}.cls-2{stroke:#fff;stroke-linecap:round;stroke-miterlimit:10;stroke-width:2px;}.cls-3{fill:#fff;}</style></defs><title>Account Information header</title><rect class="cls-1" width="48" height="48"/><circle class="cls-2" cx="23.5" cy="25.42" r="18.84"/><path class="cls-3" d="M24.37,28.69a32.45,32.45,0,0,1-.07-3.3c.57-.3,1.6-2.22,1.77-3.84.45,0,1.16-.48,1.37-2.21a1.62,1.62,0,0,0-.61-1.62c.73-2.2,2.26-9-2.82-9.73-.52-.92-1.86-1.38-3.6-1.38-7,.13-7.79,5.25-6.26,11.11a1.62,1.62,0,0,0-.61,1.62c.21,1.74.92,2.18,1.37,2.21.17,1.62,1.24,3.54,1.81,3.84a32.45,32.45,0,0,1-.07,3.3c-1,2.66-6.07,2.87-9,5.44a19.19,19.19,0,0,0,13.28,5.3c5.24,0,11.41-4.14,12.43-5.27C30.46,31.56,25.36,31.36,24.37,28.69Z" transform="translate(3 5)"/></svg>