<svg id="Layer_1" data-name="Layer 1" xmlns="http://www.w3.org/2000/svg" viewBox="0 0 35 35"><defs><style>.cls-1{fill:#5072a1;}</style></defs><title>add file arrow</title><path class="cls-1" d="M35.5,18A17.5,17.5,0,1,1,18,.5,17.52,17.52,0,0,1,35.5,18ZM1.42,18A16.58,16.58,0,1,0,18,1.42,16.59,16.59,0,0,0,1.42,18Zm25-1.46a.46.46,0,0,1-.14.33.5.5,0,0,1-.68,0L18.41,9.49V27.66a.41.41,0,1,1-.81,0V9.49l-7.19,7.37a.48.48,0,0,1-.82-.32.46.46,0,0,1,.13-.32l8-8.19a.46.46,0,0,1,.66,0l8,8.19A.46.46,0,0,1,26.41,16.54Z" transform="translate(-0.5 -0.5)"/></svg>