<svg id="Layer_1" data-name="Layer 1" xmlns="http://www.w3.org/2000/svg" viewBox="0 0 15 15"><defs><style>.cls-1{fill:#668fca;}</style></defs><title>All List arrow</title><path class="cls-1" d="M8,15.5A7.5,7.5,0,1,1,15.5,8,7.51,7.51,0,0,1,8,15.5ZM8,.9A7.1,7.1,0,1,0,15.1,8,7.11,7.11,0,0,0,8,.9Zm.63,10.71a.2.2,0,0,1-.14-.06.21.21,0,0,1,0-.29l3.16-3.08H3.86a.18.18,0,1,1,0-.35h7.79L8.49,4.75a.2.2,0,0,1,.14-.35.2.2,0,0,1,.14.05l3.51,3.41a.2.2,0,0,1,0,.28L8.76,11.55A.2.2,0,0,1,8.63,11.61Z" transform="translate(-0.5 -0.5)"/></svg>