<svg id="Layer_1" data-name="Layer 1" xmlns="http://www.w3.org/2000/svg" viewBox="0 0 50 50"><defs><style>.cls-1{fill:none;}.cls-2{fill:#fff;}</style></defs><title>card</title><rect class="cls-1" width="50" height="50"/><rect class="cls-1" width="50" height="50"/><path class="cls-2" d="M42.38,41H7.62A5.62,5.62,0,0,1,2,35.38V15A6.26,6.26,0,0,1,8,9H42a6.16,6.16,0,0,1,6,5.85V35.38A5.62,5.62,0,0,1,42.38,41ZM8,11c-2.59,0-4,2.64-4,4V35.38A3.62,3.62,0,0,0,7.62,39H42.38A3.62,3.62,0,0,0,46,35.38V14.85A4.19,4.19,0,0,0,42,11Z"/><rect class="cls-2" x="3" y="16" width="44" height="5"/></svg>