<svg id="Layer_1" data-name="Layer 1" xmlns="http://www.w3.org/2000/svg" viewBox="0 0 50 57.82"><defs><style>.cls-1{fill:#606a71;}</style></defs><title>Certificates</title><path class="cls-1" d="M46.73,47.78a7,7,0,1,1,7-7A7,7,0,0,1,46.73,47.78Zm0-12.52a5.52,5.52,0,1,0,5.52,5.52A5.52,5.52,0,0,0,46.73,35.26Z" transform="translate(-8 -4.09)"/><path class="cls-1" d="M46.73,33.89a6.89,6.89,0,1,0,6.89,6.89A6.89,6.89,0,0,0,46.73,33.89Zm0,12.52a5.63,5.63,0,1,1,5.63-5.63A5.64,5.64,0,0,1,46.73,46.41Z" transform="translate(-8 -4.09)"/><path class="cls-1" d="M11.25,61.91A3.25,3.25,0,0,1,8,58.66V7.34a3.25,3.25,0,0,1,3.25-3.25H46.93a3.25,3.25,0,0,1,3.25,3.25V28L50,27.9a5.58,5.58,0,0,0-1.23-.66l-.08-19.9a1.76,1.76,0,0,0-1.76-1.76H11.25A1.76,1.76,0,0,0,9.49,7.34V58.66a1.76,1.76,0,0,0,1.76,1.76H43.77l1.38,1.28.21.2Z" transform="translate(-8 -4.09)"/><path class="cls-1" d="M11.25,60.54a1.88,1.88,0,0,1-1.88-1.88V7.34a1.88,1.88,0,0,1,1.88-1.88H46.93a1.88,1.88,0,0,1,1.88,1.88V27.13a5.69,5.69,0,0,1,1.25.67V7.34a3.13,3.13,0,0,0-3.13-3.13H11.25A3.13,3.13,0,0,0,8.12,7.34V58.66a3.13,3.13,0,0,0,3.13,3.13H45.06l-1.29-1.25Z" transform="translate(-8 -4.09)"/><path class="cls-1" d="M15,11.83a.74.74,0,1,1,0-1.49H43.17a.74.74,0,1,1,0,1.49Z" transform="translate(-8 -4.09)"/><path class="cls-1" d="M43.17,10.47H15a.63.63,0,1,0,0,1.25H43.17a.63.63,0,1,0,0-1.25Z" transform="translate(-8 -4.09)"/><path class="cls-1" d="M15,18.09a.74.74,0,1,1,0-1.49H43.17a.74.74,0,1,1,0,1.49Z" transform="translate(-8 -4.09)"/><path class="cls-1" d="M43.17,16.72H15A.63.63,0,1,0,15,18H43.17a.63.63,0,1,0,0-1.25Z" transform="translate(-8 -4.09)"/><path class="cls-1" d="M15,24.35a.74.74,0,1,1,0-1.49H43.17a.74.74,0,1,1,0,1.49Z" transform="translate(-8 -4.09)"/><path class="cls-1" d="M43.8,23.61a.63.63,0,0,0-.63-.63H15a.63.63,0,1,0,0,1.25H43.17A.63.63,0,0,0,43.8,23.61Z" transform="translate(-8 -4.09)"/><path class="cls-1" d="M15,30.61a.74.74,0,1,1,0-1.49H39.17l-.34.22a5.58,5.58,0,0,0-1.35,1.23l0,0Z" transform="translate(-8 -4.09)"/><path class="cls-1" d="M14.38,29.87a.63.63,0,0,0,.63.63H37.39a5.67,5.67,0,0,1,1.38-1.25H15A.63.63,0,0,0,14.38,29.87Z" transform="translate(-8 -4.09)"/><path class="cls-1" d="M48.33,61.91a.79.79,0,0,1-.21,0,.75.75,0,0,1-.51-.55l-2-9.17a2.62,2.62,0,0,1-1.31-.83,1.83,1.83,0,0,0-1.36-.61,1.74,1.74,0,0,0-.38,0,3.36,3.36,0,0,1-.7.07,3.25,3.25,0,0,1-1.33-.29L39.44,55.1l2.8-.89a.72.72,0,0,1,.22,0,.75.75,0,0,1,.52.21l3.06,3a.75.75,0,0,1,0,1.05.74.74,0,0,1-1.05,0l-2.79-2.69-3.58,1.19a.71.71,0,0,1-.22,0,.74.74,0,0,1-.73-.91l1.56-6.55a2.82,2.82,0,0,1-.68-1.62,1.82,1.82,0,0,0-1.07-1.48A3.31,3.31,0,0,1,36,41.69a1.82,1.82,0,0,0,0-1.83,3.31,3.31,0,0,1,1.52-4.69,1.82,1.82,0,0,0,1.07-1.48,3.3,3.3,0,0,1,4-2.9,1.83,1.83,0,0,0,1.74-.57,3.31,3.31,0,0,1,4.93,0,1.84,1.84,0,0,0,1.74.57,3.3,3.3,0,0,1,4,2.9A1.82,1.82,0,0,0,56,35.17a3.31,3.31,0,0,1,1.52,4.69,1.83,1.83,0,0,0,0,1.83A3.31,3.31,0,0,1,56,46.38,1.82,1.82,0,0,0,55,47.86a3.29,3.29,0,0,1-.93,2l2.14,9.5a.74.74,0,0,1-.73.9.73.73,0,0,1-.22,0L51.51,59,48.85,61.7A.75.75,0,0,1,48.33,61.91Zm.44-2.21,2.09-2a.74.74,0,0,1,.74-.17l2.83.89-1.7-7.74a3.34,3.34,0,0,1-1.77.1,1.77,1.77,0,0,0-.38,0,1.83,1.83,0,0,0-1.36.61,3.29,3.29,0,0,1-2,1.07ZM42.94,49.23a3.31,3.31,0,0,1,2.47,1.1,1.82,1.82,0,0,0,2.71,0,3.33,3.33,0,0,1,2.48-1.1,3.26,3.26,0,0,1,.68.07,1.82,1.82,0,0,0,2.19-1.6,3.32,3.32,0,0,1,2-2.69,1.82,1.82,0,0,0,.84-2.58,3.32,3.32,0,0,1,0-3.33,1.82,1.82,0,0,0-.84-2.58,3.31,3.31,0,0,1-2-2.69,1.84,1.84,0,0,0-1.81-1.64,1.81,1.81,0,0,0-.38,0,3.24,3.24,0,0,1-.68.07,3.32,3.32,0,0,1-2.48-1.1,1.82,1.82,0,0,0-2.71,0,3.31,3.31,0,0,1-3.16,1,1.84,1.84,0,0,0-.39,0A1.81,1.81,0,0,0,40,33.84a3.32,3.32,0,0,1-2,2.69,1.82,1.82,0,0,0-1,1.1,1.84,1.84,0,0,0,.16,1.48,3.31,3.31,0,0,1,0,3.32A1.82,1.82,0,0,0,38.09,45a3.32,3.32,0,0,1,2,2.69,1.81,1.81,0,0,0,1.81,1.64,1.9,1.9,0,0,0,.39,0A3.25,3.25,0,0,1,42.94,49.23Z" transform="translate(-8 -4.09)"/><path class="cls-1" d="M57.45,39.8A3.19,3.19,0,0,0,56,35.28a1.94,1.94,0,0,1-1.15-1.58A3.19,3.19,0,0,0,51,30.91a2,2,0,0,1-1.85-.6,3.19,3.19,0,0,0-4.75,0,2,2,0,0,1-1.85.6,3.19,3.19,0,0,0-3.85,2.79,1.94,1.94,0,0,1-1.14,1.58,3.19,3.19,0,0,0-1.47,4.52,1.94,1.94,0,0,1,0,1.95,3.19,3.19,0,0,0,1.47,4.52,1.94,1.94,0,0,1,1.14,1.58,3.19,3.19,0,0,0,.68,1.66L37.8,56.06a.63.63,0,0,0,.8.74l3.7-1.17,2.79,2.7a.63.63,0,0,0,.87-.9l-3.05-3a.62.62,0,0,0-.62-.15l-3,.95,1.17-4.9a3.16,3.16,0,0,0,1.41.34,3.21,3.21,0,0,0,.68-.07,2,2,0,0,1,1.85.6,3.19,3.19,0,0,0,1.34.89l2,9.17a.63.63,0,0,0,.43.47l.18,0a.62.62,0,0,0,.44-.18l2.79-2.7,3.7,1.17a.63.63,0,0,0,.8-.73l-2.11-9.61a3.18,3.18,0,0,0,.9-1.9A1.94,1.94,0,0,1,56,46.27a3.19,3.19,0,0,0,1.47-4.52A1.94,1.94,0,0,1,57.45,39.8ZM51.57,57.62a.62.62,0,0,0-.62.15L48.7,59.94,47,52.29a3.19,3.19,0,0,0,2.1-1,2,2,0,0,1,1.85-.6,3.2,3.2,0,0,0,1.84-.14l1.77,8.07Zm4.8-15.24a1.94,1.94,0,0,1-.89,2.75,3.2,3.2,0,0,0-1.89,2.59,2,2,0,0,1-2.34,1.7,3.23,3.23,0,0,0-3,1,1.94,1.94,0,0,1-2.89,0,3.19,3.19,0,0,0-3-1,2,2,0,0,1-.41,0,1.93,1.93,0,0,1-1.92-1.74A3.2,3.2,0,0,0,38,45.13a1.94,1.94,0,0,1-.89-2.75,3.2,3.2,0,0,0,0-3.21A1.94,1.94,0,0,1,38,36.42a3.2,3.2,0,0,0,1.88-2.59,1.93,1.93,0,0,1,1.92-1.74,2,2,0,0,1,.41,0,3.19,3.19,0,0,0,3-1,1.94,1.94,0,0,1,2.89,0,3.22,3.22,0,0,0,3,1,2,2,0,0,1,2.34,1.7,3.2,3.2,0,0,0,1.89,2.59,1.94,1.94,0,0,1,.89,2.75A3.2,3.2,0,0,0,56.37,42.38Z" transform="translate(-8 -4.09)"/></svg>