<svg id="Layer_2" data-name="Layer 2" xmlns="http://www.w3.org/2000/svg" viewBox="0 0 57.47 57.47"><defs><style>.cls-1{fill:#606a71;}</style></defs><title>Chemistry</title><path class="cls-1" d="M52.29,61.73a7.52,7.52,0,0,1-7.52-7.52V19.3H27v12h8.88a.76.76,0,1,1,0,1.53H27V54.22a6,6,0,1,0,12,0V22.39a.76.76,0,1,1,1.53,0V54.22a7.52,7.52,0,0,1-15,0V19.3H7.72V35.13H16.6a.76.76,0,1,1,0,1.53H7.72V54.22a6,6,0,1,0,12,0V22.39a.76.76,0,1,1,1.53,0V54.22a7.52,7.52,0,1,1-15,0V19.3H5a.76.76,0,1,1,0-1.53H6.2v-5a.76.76,0,1,1,1.53,0v5h12v-5a.76.76,0,1,1,1.53,0v5h4.26v-5a.76.76,0,0,1,1.53,0v5H39v-5a.76.76,0,0,1,1.53,0v5h4.26v-5a.76.76,0,1,1,1.53,0v5h12v-5a.76.76,0,1,1,1.53,0v5H61a.76.76,0,0,1,0,1.53H46.3V39h8.88a.76.76,0,0,1,0,1.53H46.3v13.7a6,6,0,0,0,12,0V22.39a.76.76,0,1,1,1.53,0V54.22A7.52,7.52,0,0,1,52.29,61.73Zm0-4.82a.76.76,0,1,1,0-1.53,2.13,2.13,0,0,0,2.13-2.13.76.76,0,1,1,1.53,0A3.66,3.66,0,0,1,52.29,56.91ZM33,56.91a.76.76,0,1,1,0-1.53,2.13,2.13,0,0,0,2.13-2.13.76.76,0,1,1,1.53,0A3.66,3.66,0,0,1,33,56.91Zm-19.29,0a.76.76,0,1,1,0-1.53,2.13,2.13,0,0,0,2.13-2.13.76.76,0,1,1,1.53,0A3.66,3.66,0,0,1,13.71,56.91Zm16.42-8.68a.76.76,0,1,1,.76-.76A.77.77,0,0,1,30.14,48.23ZM51.35,46.3a.76.76,0,1,1,.76-.76A.77.77,0,0,1,51.35,46.3ZM34,42.44a.76.76,0,1,1,.76-.76A.77.77,0,0,1,34,42.44ZM15.64,28.94a1.73,1.73,0,1,1,1.73-1.73A1.73,1.73,0,0,1,15.64,28.94ZM54.22,27a1.73,1.73,0,1,1,1.73-1.73A1.73,1.73,0,0,1,54.22,27ZM12.75,13.51a2.69,2.69,0,1,1,2.69-2.69A2.7,2.7,0,0,1,12.75,13.51Zm0-3.86a1.16,1.16,0,1,0,1.17,1.16A1.17,1.17,0,0,0,12.75,9.65Zm22.18,1.93a3.66,3.66,0,1,1,3.66-3.66A3.66,3.66,0,0,1,34.93,11.58Zm0-5.79a2.13,2.13,0,1,0,2.13,2.13A2.13,2.13,0,0,0,34.93,5.79Z" transform="translate(-4.27 -4.27)"/></svg>