<svg id="Layer_4" data-name="Layer 4" xmlns="http://www.w3.org/2000/svg" viewBox="0 0 32.26 40.57"><defs><style>.cls-1{fill:#fff;}</style></defs><title>client feedback header</title><path class="cls-1" d="M7,40.78a2.68,2.68,0,0,1-2.68-2.68V6.7A2.68,2.68,0,0,1,7,4h5.86V4a2,2,0,0,1,1.77-1.32H16l0-.58a1.87,1.87,0,0,1,3.74,0v.61l1.23,0a2,2,0,0,1,1.76,1.29l.06.1,5.83,0A2.68,2.68,0,0,1,31.3,6.7V27.94a.69.69,0,0,1-1.39,0V6.7a1.29,1.29,0,0,0-1.29-1.29H23.57l.06.09a.7.7,0,0,1,.08.21A1.43,1.43,0,0,1,23.46,7a1.92,1.92,0,0,1-1.56.61H13.78A1.92,1.92,0,0,1,12.22,7,1.42,1.42,0,0,1,12,5.72.68.68,0,0,1,12,5.52l.08-.14L7,5.41A1.29,1.29,0,0,0,5.76,6.7v31.4A1.29,1.29,0,0,0,7,39.4H28.63a1.29,1.29,0,0,0,1.29-1.29V36.63a.69.69,0,0,1,1.39,0v1.48a2.68,2.68,0,0,1-2.68,2.68ZM13.31,6.14a3.44,3.44,0,0,0,.47,0h8.12a.86.86,0,0,0,.48-.09l-.86-1.49C21.23,4,21.09,4,21,4H19.06a.7.7,0,0,1-.69-.69V2.07a.49.49,0,0,0-1,0V3.34A.7.7,0,0,1,16.7,4h-2c-.11,0-.23,0-.53.55l-.88,1.56Z" transform="translate(-4.37 -0.22)"/><path class="cls-1" d="M7,40.76a2.65,2.65,0,0,1-2.65-2.65V6.7A2.65,2.65,0,0,1,7,4.05h5.87l0-.09a2,2,0,0,1,1.74-1.29H16V2.07a1.85,1.85,0,0,1,3.69,0v.61H21A2,2,0,0,1,22.72,4l.06.1h5.85A2.65,2.65,0,0,1,31.28,6.7V27.94a.67.67,0,1,1-1.34,0V6.7a1.31,1.31,0,0,0-1.31-1.31H23.53l.08.14a.66.66,0,0,1,.07.19A1.4,1.4,0,0,1,23.44,7a1.9,1.9,0,0,1-1.54.6H13.78A1.9,1.9,0,0,1,12.24,7,1.4,1.4,0,0,1,12,5.72a.69.69,0,0,1,.07-.19l.08-.15H7A1.32,1.32,0,0,0,5.73,6.7V38.11A1.32,1.32,0,0,0,7,39.42H28.63a1.32,1.32,0,0,0,1.31-1.31V36.63a.67.67,0,1,1,1.34,0v1.48a2.65,2.65,0,0,1-2.65,2.65ZM14.69,4c-.12,0-.25,0-.55.57l-.88,1.56a1.84,1.84,0,0,0,.53.08h8.12a.84.84,0,0,0,.5-.1l-.85-1.52C21.24,4,21.1,4,21,4H19.06a.67.67,0,0,1-.67-.67V2.07a.51.51,0,0,0-1,0V3.34A.67.67,0,0,1,16.7,4Z" transform="translate(-4.37 -0.22)"/><path class="cls-1" d="M7,40.71a2.6,2.6,0,0,1-2.6-2.6V6.7A2.6,2.6,0,0,1,7,4.1h5.89L13,4a1.9,1.9,0,0,1,1.68-1.24H16.1l0-.65a1.8,1.8,0,0,1,3.59,0v.68l1.31,0A1.92,1.92,0,0,1,22.67,4l.08.14h5.88a2.6,2.6,0,0,1,2.6,2.6V27.94a.62.62,0,0,1-1.23,0V6.7a1.37,1.37,0,0,0-1.37-1.37h-5.2l.14.21a.57.57,0,0,1,.07.19,1.35,1.35,0,0,1-.24,1.18,1.85,1.85,0,0,1-1.5.58H13.78a1.85,1.85,0,0,1-1.5-.58A1.35,1.35,0,0,1,12,5.73a.62.62,0,0,1,.07-.18l.15-.26L7,5.34A1.37,1.37,0,0,0,5.68,6.7v31.4A1.37,1.37,0,0,0,7,39.47H28.63A1.37,1.37,0,0,0,30,38.11V36.63a.62.62,0,0,1,1.24,0v1.48a2.6,2.6,0,0,1-2.6,2.6ZM14.69,4c-.14,0-.28,0-.6.6l-.88,1.55s0,0,0,0a.86.86,0,0,0,.54.12h8.12a.86.86,0,0,0,.54-.12h0a.24.24,0,0,0,0-.11l-.85-1.46C21.27,4,21.11,4,21,4H19.06a.62.62,0,0,1-.62-.62V2.07a.56.56,0,0,0-1.12,0V3.34A.62.62,0,0,1,16.7,4Z" transform="translate(-4.37 -0.22)"/><path class="cls-1" d="M7,40.68a2.58,2.58,0,0,1-2.57-2.57V6.7A2.58,2.58,0,0,1,7,4.13h5.9L13,4a1.87,1.87,0,0,1,1.65-1.22h1.42V2.07a1.77,1.77,0,0,1,3.54,0v.69H21A1.89,1.89,0,0,1,22.65,4l.08.15h5.89A2.58,2.58,0,0,1,31.2,6.7V27.94a.59.59,0,0,1-1.18,0V6.7a1.39,1.39,0,0,0-1.39-1.39H23.4l.15.26a.59.59,0,0,1,.06.17,1.33,1.33,0,0,1-.24,1.17,1.83,1.83,0,0,1-1.48.57H13.78a1.83,1.83,0,0,1-1.48-.57,1.33,1.33,0,0,1-.24-1.17.6.6,0,0,1,.06-.17l.15-.26H7A1.39,1.39,0,0,0,5.65,6.7V38.11A1.39,1.39,0,0,0,7,39.5H28.63A1.39,1.39,0,0,0,30,38.11V36.63a.59.59,0,0,1,1.18,0v1.48a2.58,2.58,0,0,1-2.57,2.57ZM14.69,3.94c-.14,0-.29,0-.62.61L13.18,6.1s0,0,0,.06a.85.85,0,0,0,.56.13h8.11a.86.86,0,0,0,.56-.13.22.22,0,0,0,0-.13l-.85-1.47c-.32-.62-.49-.62-.63-.62H19.06a.59.59,0,0,1-.59-.59V2.07a.59.59,0,0,0-1.17,0V3.34a.59.59,0,0,1-.59.59Z" transform="translate(-4.37 -0.22)"/><path class="cls-1" d="M7.39,14.14a.69.69,0,0,1-.69-.69V10.31a.69.69,0,0,1,.69-.69h3.13a.69.69,0,0,1,.69.69v3.13a.69.69,0,0,1-.69.69Zm.69-1.36,1.77,0,0-1.77L8.08,11Z" transform="translate(-4.37 -0.22)"/><path class="cls-1" d="M7.39,14.12a.67.67,0,0,1-.67-.67V10.31a.67.67,0,0,1,.67-.67h3.13a.67.67,0,0,1,.67.67v3.13a.67.67,0,0,1-.67.67Zm2.47-1.34V11H8.06v1.8Z" transform="translate(-4.37 -0.22)"/><path class="cls-1" d="M7.39,14.07a.62.62,0,0,1-.62-.62V10.31a.62.62,0,0,1,.62-.62h3.13a.62.62,0,0,1,.62.62v3.13a.62.62,0,0,1-.62.62ZM8,12.85l1.92,0,0-1.93-1.9,0Z" transform="translate(-4.37 -0.22)"/><path class="cls-1" d="M7.39,14a.59.59,0,0,1-.59-.59V10.31a.59.59,0,0,1,.59-.59h3.13a.59.59,0,0,1,.59.59v3.13a.59.59,0,0,1-.59.59Zm2.54-1.18v-2H8v2Z" transform="translate(-4.37 -0.22)"/><path class="cls-1" d="M7.39,19.63a.69.69,0,0,1-.69-.69V15.8a.7.7,0,0,1,.69-.69h3.13a.69.69,0,0,1,.69.69v3.13a.69.69,0,0,1-.69.69Zm.69-1.36,1.77,0,0-1.77-1.75,0Z" transform="translate(-4.37 -0.22)"/><path class="cls-1" d="M7.39,19.6a.67.67,0,0,1-.67-.67V15.8a.67.67,0,0,1,.67-.67h3.13a.67.67,0,0,1,.67.67v3.13a.67.67,0,0,1-.67.67Zm2.47-1.34v-1.8H8.06v1.8Z" transform="translate(-4.37 -0.22)"/><path class="cls-1" d="M7.39,19.55a.62.62,0,0,1-.62-.62V15.8a.62.62,0,0,1,.62-.62h3.13a.62.62,0,0,1,.62.62v3.13a.62.62,0,0,1-.62.62ZM8,18.34l1.92,0,0-1.93-1.9,0Z" transform="translate(-4.37 -0.22)"/><path class="cls-1" d="M7.39,19.53a.59.59,0,0,1-.59-.59V15.8a.59.59,0,0,1,.59-.59h3.13a.59.59,0,0,1,.59.59v3.13a.59.59,0,0,1-.59.59Zm2.54-1.18v-2H8v2Z" transform="translate(-4.37 -0.22)"/><path class="cls-1" d="M7.39,25.11a.69.69,0,0,1-.69-.69V21.28a.69.69,0,0,1,.69-.69h3.13a.69.69,0,0,1,.69.69v3.13a.69.69,0,0,1-.69.69Zm.69-1.36,1.77,0,0-1.77L8.08,22Z" transform="translate(-4.37 -0.22)"/><path class="cls-1" d="M7.39,25.09a.67.67,0,0,1-.67-.67V21.28a.67.67,0,0,1,.67-.67h3.13a.67.67,0,0,1,.67.67v3.13a.67.67,0,0,1-.67.67Zm2.47-1.34V22H8.06v1.8Z" transform="translate(-4.37 -0.22)"/><path class="cls-1" d="M7.39,25a.62.62,0,0,1-.62-.62V21.28a.62.62,0,0,1,.62-.62h3.13a.62.62,0,0,1,.62.62v3.13a.62.62,0,0,1-.62.62ZM8,23.82l1.92,0,0-1.92L8,21.9Z" transform="translate(-4.37 -0.22)"/><path class="cls-1" d="M7.39,25a.59.59,0,0,1-.59-.59V21.28a.59.59,0,0,1,.59-.59h3.13a.59.59,0,0,1,.59.59v3.13a.59.59,0,0,1-.59.59Zm2.54-1.18v-2H8v2Z" transform="translate(-4.37 -0.22)"/><path class="cls-1" d="M13.4,23.54a.69.69,0,1,1,0-1.39H27.11a.69.69,0,0,1,0,1.39Z" transform="translate(-4.37 -0.22)"/><path class="cls-1" d="M13.4,23.52a.67.67,0,1,1,0-1.34H27.11a.67.67,0,0,1,0,1.34Z" transform="translate(-4.37 -0.22)"/><path class="cls-1" d="M13.4,23.47a.62.62,0,0,1,0-1.24H27.11a.62.62,0,0,1,0,1.24Z" transform="translate(-4.37 -0.22)"/><path class="cls-1" d="M13.4,23.44a.59.59,0,0,1,0-1.18H27.11a.59.59,0,0,1,0,1.18Z" transform="translate(-4.37 -0.22)"/><path class="cls-1" d="M13.4,18.84a.69.69,0,1,1,0-1.39H27.11a.69.69,0,0,1,0,1.39Z" transform="translate(-4.37 -0.22)"/><path class="cls-1" d="M13.4,18.82a.67.67,0,0,1,0-1.34H27.11a.67.67,0,0,1,0,1.34Z" transform="translate(-4.37 -0.22)"/><path class="cls-1" d="M13.4,18.77a.62.62,0,0,1,0-1.23H27.11a.62.62,0,0,1,0,1.23Z" transform="translate(-4.37 -0.22)"/><path class="cls-1" d="M13.4,18.74a.59.59,0,0,1,0-1.18H27.11a.59.59,0,0,1,0,1.18Z" transform="translate(-4.37 -0.22)"/><path class="cls-1" d="M13.4,12.58a.69.69,0,1,1,0-1.39H27.11a.69.69,0,0,1,0,1.39Z" transform="translate(-4.37 -0.22)"/><path class="cls-1" d="M13.4,12.55a.67.67,0,1,1,0-1.34H27.11a.67.67,0,0,1,0,1.34Z" transform="translate(-4.37 -0.22)"/><path class="cls-1" d="M13.4,12.5a.62.62,0,0,1,0-1.23H27.11a.62.62,0,0,1,0,1.23Z" transform="translate(-4.37 -0.22)"/><path class="cls-1" d="M13.4,12.47a.59.59,0,0,1,0-1.18H27.11a.59.59,0,0,1,0,1.18Z" transform="translate(-4.37 -0.22)"/><path class="cls-1" d="M27.76,36.49a.68.68,0,0,1-.26-.06l-.18-.1-.08-.09-5.16-6.36a.69.69,0,0,1,.1-1,.69.69,0,0,1,1,.1l4.62,5.7,7.62-9.57a.69.69,0,1,1,1.08.87L28.29,36.24l-.09.09-.15.09A.73.73,0,0,1,27.76,36.49Z" transform="translate(-4.37 -0.22)"/><path class="cls-1" d="M27.76,36.47a.65.65,0,0,1-.26-.05l-.17-.09-.08-.08L22.1,29.88a.67.67,0,0,1,.52-1.09.67.67,0,0,1,.52.25l4.62,5.7,7.66-9.57a.67.67,0,0,1,.52-.25A.67.67,0,0,1,36.46,26l-8.2,10.24-.08.08L28,36.4A.71.71,0,0,1,27.76,36.47Z" transform="translate(-4.37 -0.22)"/><path class="cls-1" d="M27.76,36.42a.58.58,0,0,1-.2,0l0,0-.19-.15-.07-.07-5.14-6.34a.62.62,0,0,1,.09-.87.63.63,0,0,1,.39-.14.62.62,0,0,1,.48.23l4.68,5.77,7.68-9.65a.62.62,0,0,1,.87-.09.62.62,0,0,1,.1.87L28.23,36.19l-.07.07-.15.09A.64.64,0,0,1,27.76,36.42Z" transform="translate(-4.37 -0.22)"/><path class="cls-1" d="M27.76,36.39a.59.59,0,0,1-.22,0l-.19-.11-5.19-6.41a.59.59,0,1,1,.92-.75l4.68,5.77,7.72-9.65a.59.59,0,1,1,.92.74L28.2,36.19l-.08.07-.18-.13.09.18A.64.64,0,0,1,27.76,36.39Z" transform="translate(-4.37 -0.22)"/></svg>