<svg id="Layer_3" data-name="Layer 3" xmlns="http://www.w3.org/2000/svg" viewBox="0 0 58.1 58.1"><defs><style>.cls-1{fill:#606a71;}</style></defs><title>Earth Sciences</title><path class="cls-1" d="M33,62A29,29,0,1,1,33,4h.11a29,29,0,0,1,0,58.1H33ZM22.34,50.18A46.5,46.5,0,0,0,27.91,60l0,.09a28.87,28.87,0,0,0,4.31.44V49A46.64,46.64,0,0,0,22.34,50.18Zm11.38,10.4A27.51,27.51,0,0,0,39,59.93a48.32,48.32,0,0,0,5.37-9.57A46.53,46.53,0,0,0,33.73,49ZM14,53a27.65,27.65,0,0,0,11.85,6.66,47.83,47.83,0,0,1-4.94-9.12A46.41,46.41,0,0,0,14,53ZM45.8,50.73a48,48,0,0,1-4.66,8.64A27.76,27.76,0,0,0,52,53,46.5,46.5,0,0,0,45.8,50.73Zm-40.39-17a27.52,27.52,0,0,0,7.5,18.17,47.8,47.8,0,0,1,7.47-2.72,47.7,47.7,0,0,1-3-15.45ZM46.33,49.37a47.91,47.91,0,0,1,6.75,2.52,27.51,27.51,0,0,0,7.51-18.17H49.37A47.65,47.65,0,0,1,46.33,49.37ZM33.73,47.51A48,48,0,0,1,44.92,49a46.19,46.19,0,0,0,3-15.27H33.73ZM18.88,33.73a46.24,46.24,0,0,0,2.92,15.09,48.07,48.07,0,0,1,10.47-1.31V33.73Zm29.06-1.45a46.37,46.37,0,0,0-2.54-15,47.92,47.92,0,0,1-11.67,1.61V32.27Zm12.65,0a27.54,27.54,0,0,0-7.26-17.91,48.06,48.06,0,0,1-6.53,2.5,47.83,47.83,0,0,1,2.6,15.41Zm-28.31,0V18.87a48,48,0,0,1-10.93-1.41,46.41,46.41,0,0,0-2.48,14.82Zm-14.87,0a47.84,47.84,0,0,1,2.53-15.2,47.91,47.91,0,0,1-7.27-2.72A27.61,27.61,0,0,0,5.41,32.27Zm4.44-16.21A46.52,46.52,0,0,0,32.27,17.4v-12A27.83,27.83,0,0,0,27.05,6,48.27,48.27,0,0,0,21.84,16.06ZM33.73,17.4a46.49,46.49,0,0,0,11.16-1.52,46.43,46.43,0,0,0-5.05-9.64,28.85,28.85,0,0,0-6.1-.82Zm-20-4.16a46.37,46.37,0,0,0,6.68,2.46A47.73,47.73,0,0,1,25,6.58a27.36,27.36,0,0,0-11.26,6.66ZM42,6.93a47.83,47.83,0,0,1,4.27,8.56,46.46,46.46,0,0,0,6-2.24A27.83,27.83,0,0,0,42,6.93Z" transform="translate(-3.95 -3.95)"/></svg>