<svg id="Layer_5" data-name="Layer 5" xmlns="http://www.w3.org/2000/svg" viewBox="0 0 57.07 57.07"><defs><style>.cls-1{fill:#606a71;}</style></defs><title>Exact Science</title><path class="cls-1" d="M9.12,61.53a4.91,4.91,0,0,1-4.66-4.66V9.12A4.91,4.91,0,0,1,9.12,4.47h19.1a.84.84,0,0,1,0,1.67H9.12a3.28,3.28,0,0,0-3,3V56.88a3.28,3.28,0,0,0,3,3H56.88a3.28,3.28,0,0,0,3-3V9.12a3.28,3.28,0,0,0-3-3H34l-.12,25,23,.12a.84.84,0,0,1,0,1.67H34l-.12,24a.84.84,0,1,1-1.67,0V33l-23-.12a.84.84,0,1,1,0-1.67H32L32.16,5.3A.84.84,0,0,1,33,4.47H56.88a4.91,4.91,0,0,1,4.66,4.66V56.88a4.91,4.91,0,0,1-4.66,4.66ZM23.45,52a.83.83,0,0,1-.59-.25l-4.1-4.1-4.27,4.1a.84.84,0,1,1-1.18-1.18l4.1-4.1-4.1-4.27a.83.83,0,0,1,0-1.18.83.83,0,0,1,1.18,0l4.1,4.1L22.86,41A.83.83,0,1,1,24,42.19l-4.1,4.1L24,50.56A.84.84,0,0,1,23.45,52ZM41.6,50.07a.84.84,0,1,1,0-1.67H53.06a.84.84,0,1,1,0,1.67Zm0-5.73a.84.84,0,1,1,0-1.67H53.06a.84.84,0,0,1,0,1.67ZM18.67,25.24a.84.84,0,0,1-.84-.84V19.63l-4.9-.12a.84.84,0,0,1,0-1.67h4.78l.12-4.89a.84.84,0,1,1,1.67,0v4.78l4.89.12a.84.84,0,1,1,0,1.67H19.63l-.12,4.89A.84.84,0,0,1,18.67,25.24ZM41.6,19.51a.84.84,0,1,1,0-1.67H53.06a.84.84,0,0,1,0,1.67Z" transform="translate(-4.47 -4.47)"/></svg>