<svg id="Layer_3" data-name="Layer 3" xmlns="http://www.w3.org/2000/svg" xmlns:xlink="http://www.w3.org/1999/xlink" viewBox="0 0 31 31"><defs><style>.cls-1{fill:none;}.cls-2{clip-path:url(#clip-path);}.cls-3{fill:#217346;}.cls-4{fill:#fff;}</style><clipPath id="clip-path" transform="translate(-0.5 -0.5)"><rect class="cls-1" x="0.5" y="0.5" width="31" height="31"/></clipPath></defs><title>excel</title><g class="cls-2"><circle class="cls-3" cx="15.5" cy="15.5" r="15.5"/></g><g class="cls-2"><path class="cls-4" d="M24.48,12.52H20.84V10.4h3.63Zm0,3H20.84V13.43h3.63Zm0,3H20.84V16.45h3.63Zm0,3H20.84V19.48h3.63Zm.91-12.71H17.82V10.4h2.12v2.12H17.82v.91h2.12v2.12H17.82v.91h2.12v2.12H17.82v.91h2.12V21.6H17.82v1.51h7.57a.3.3,0,0,0,.3-.3V9.19A.3.3,0,0,0,25.38,8.89Z" transform="translate(-0.5 -0.5)"/></g><g class="cls-2"><path class="cls-4" d="M9.07,12.69l1.57-.16,1.12,2.21,1.15-2.43,1.52-.15-1.92,3.7,2,4L13,19.67l-1.19-2.56L10.5,19.41,9,19.24l2-3.33ZM6.31,23.87l10.9,1.82V6.31L6.31,8.13Z" transform="translate(-0.5 -0.5)"/></g></svg>