<svg id="Layer_4" data-name="Layer 4" xmlns="http://www.w3.org/2000/svg" viewBox="0 0 27.79 31.5"><defs><style>.cls-1{fill:#fff;}</style></defs><title>Expertise</title><metadata><?xpacket begin="﻿" id="W5M0MpCehiHzreSzNTczkc9d"?>
<x:xmpmeta xmlns:x="adobe:ns:meta/" x:xmptk="Adobe XMP Core 5.6-c111 79.158366, 2015/09/25-01:12:00        ">
   <rdf:RDF xmlns:rdf="http://www.w3.org/1999/02/22-rdf-syntax-ns#">
      <rdf:Description rdf:about=""
            xmlns:dc="http://purl.org/dc/elements/1.1/"
            xmlns:xmp="http://ns.adobe.com/xap/1.0/"
            xmlns:xmpMM="http://ns.adobe.com/xap/1.0/mm/"
            xmlns:stEvt="http://ns.adobe.com/xap/1.0/sType/ResourceEvent#">
         <dc:title>
            <rdf:Alt>
               <rdf:li xml:lang="x-default">Expertise</rdf:li>
            </rdf:Alt>
         </dc:title>
         <xmp:Rating>5</xmp:Rating>
         <xmp:MetadataDate>2016-10-09T10:15:46+03:00</xmp:MetadataDate>
         <xmpMM:InstanceID>xmp.iid:19b5f0e1-77c0-ce4f-82b3-4c5ec74c383a</xmpMM:InstanceID>
         <xmpMM:DocumentID>xmp.did:19b5f0e1-77c0-ce4f-82b3-4c5ec74c383a</xmpMM:DocumentID>
         <xmpMM:OriginalDocumentID>xmp.did:19b5f0e1-77c0-ce4f-82b3-4c5ec74c383a</xmpMM:OriginalDocumentID>
         <xmpMM:History>
            <rdf:Seq>
               <rdf:li>
                  <rdf:Description>
                     <stEvt:action>saved</stEvt:action>
                     <stEvt:instanceID>xmp.iid:19b5f0e1-77c0-ce4f-82b3-4c5ec74c383a</stEvt:instanceID>
                     <stEvt:when>2016-10-09T10:15:46+03:00</stEvt:when>
                     <stEvt:softwareAgent>Adobe Bridge CC 2015 (Windows)</stEvt:softwareAgent>
                     <stEvt:changed>/metadata</stEvt:changed>
                  </rdf:Description>
               </rdf:li>
            </rdf:Seq>
         </xmpMM:History>
      </rdf:Description>
   </rdf:RDF>
</x:xmpmeta>
                                                                                                    
                                                                                                    
                                                                                                    
                                                                                                    
                                                                                                    
                                                                                                    
                                                                                                    
                                                                                                    
                                                                                                    
                                                                                                    
                                                                                                    
                                                                                                    
                                                                                                    
                                                                                                    
                                                                                                    
                                                                                                    
                                                                                                    
                                                                                                    
                                                                                                    
                                                                                                    
                           
<?xpacket end="w"?></metadata>
<path class="cls-1" d="M29.53,33a.43.43,0,0,1-.3-.12L26.36,30a.79.79,0,0,1,0-1.12l.89-.88a.79.79,0,0,1,1.12,0l2.83,2.87a.43.43,0,0,1,0,.61l-1.37,1.35A.43.43,0,0,1,29.53,33Zm0-1,.76-.75-2.48-2.51-.79.78Z" transform="translate(-3.53 -1.47)"/><path class="cls-1" d="M5.29,32.1a1.76,1.76,0,0,1-1.75-1.75V3.22A1.76,1.76,0,0,1,5.29,1.47H24.14A1.76,1.76,0,0,1,25.9,3.22V16.45a.42.42,0,0,1-.19.35l-.06,0-.06,0c-.16-.13-.33-.24-.51-.36L25,3.22a.89.89,0,0,0-.89-.89H5.29a.89.89,0,0,0-.89.89V30.34a.89.89,0,0,0,.89.89H24.14a.89.89,0,0,0,.78-.48l.06-.12.64.63,0,.07a1.76,1.76,0,0,1-1.44.75Z" transform="translate(-3.53 -1.47)"/><path class="cls-1" d="M7.27,5.64a.43.43,0,0,1,0-.86H22.16a.43.43,0,0,1,0,.86Z" transform="translate(-3.53 -1.47)"/><path class="cls-1" d="M7.27,8.94a.43.43,0,0,1,0-.86H22.16a.43.43,0,0,1,0,.86Z" transform="translate(-3.53 -1.47)"/><path class="cls-1" d="M7.27,12.25a.43.43,0,0,1,0-.86H22.16a.43.43,0,0,1,0,.86Z" transform="translate(-3.53 -1.47)"/><path class="cls-1" d="M7.27,15.56a.43.43,0,0,1,0-.86H22.16a.43.43,0,0,1,0,.86Z" transform="translate(-3.53 -1.47)"/><path class="cls-1" d="M21.82,29.84a6.53,6.53,0,1,1,6.53-6.53A6.54,6.54,0,0,1,21.82,29.84Zm0-12.2a5.67,5.67,0,1,0,5.67,5.67A5.67,5.67,0,0,0,21.82,17.64Z" transform="translate(-3.53 -1.47)"/></svg>