<svg id="Layer_1" data-name="Layer 1" xmlns="http://www.w3.org/2000/svg" xmlns:xlink="http://www.w3.org/1999/xlink" viewBox="0 0 19.97 18.16"><defs><style>.cls-1{fill:none;}.cls-2{clip-path:url(#clip-path);}.cls-3{fill:#535353;}</style><clipPath id="clip-path" transform="translate(0 -0.39)"><rect class="cls-1" y="0.39" width="20" height="18.23"/></clipPath></defs><title>filter</title><g class="cls-2"><path class="cls-3" d="M13.46,4.73h.65a.43.43,0,1,0,0-.87h-.65a.43.43,0,1,0,0,.87Zm0,0" transform="translate(0 -0.39)"/><path class="cls-3" d="M19.88.86A.86.86,0,0,0,19.1.39H.87A.91.91,0,0,0,.09.86a.86.86,0,0,0,.09.91l7.66,9.63v6.27a.85.85,0,0,0,.46.76.9.9,0,0,0,.41.11.85.85,0,0,0,.5-.15l2.41-1.67a1.33,1.33,0,0,0,.54-1.06V11.39l7.64-9.61a.86.86,0,0,0,.09-.91ZM11.37,11a.46.46,0,0,0-.09.26v4.4a.46.46,0,0,1-.17.37L8.71,17.68V11.24a.39.39,0,0,0-.17-.35L3.63,4.73H11.5a.43.43,0,0,0,0-.87H3L.87,1.25H19.1Zm0,0" transform="translate(0 -0.39)"/></g></svg>