<svg id="Layer_6" data-name="Layer 6" xmlns="http://www.w3.org/2000/svg" viewBox="0 0 57.36 57.36"><defs><style>.cls-1,.cls-2{fill:#606a71;}.cls-2{font-size:17.88px;font-family:MyriadHebrew-Regular, Myriad Hebrew;}</style></defs><title>Finance</title><path class="cls-1" d="M36.61,61.68a.81.81,0,0,1-.24,0H36c-.27,0-.49,0-.72,0l-.42,0-.29,0-.31,0H8.11a4.08,4.08,0,0,1-3.79-4.32,4.61,4.61,0,0,1,1.32-3.25L5.77,54l-.12-.2A5.1,5.1,0,0,1,4.32,50.4a4.61,4.61,0,0,1,1.32-3.25L5.77,47l-.12-.2a5.1,5.1,0,0,1-1.33-3.38,4.61,4.61,0,0,1,1.32-3.25l.14-.13-.12-.2a5.1,5.1,0,0,1-1.33-3.38,4.08,4.08,0,0,1,3.79-4.32H23.59a17.31,17.31,0,0,1,11.16-4.61l.14,0a6.12,6.12,0,0,1,.93-1.25l.14-.13-.13-.2a5.09,5.09,0,0,1-1.35-3.39,4.6,4.6,0,0,1,1.32-3.25l.14-.13-.12-.2a5.1,5.1,0,0,1-1.33-3.38,4.6,4.6,0,0,1,1.32-3.25l.14-.13-.12-.2a5.11,5.11,0,0,1-1.33-3.38,4.08,4.08,0,0,1,3.79-4.32H57.89a4.08,4.08,0,0,1,3.79,4.32,4.61,4.61,0,0,1-1.32,3.25l-.13.13.12.2a5.1,5.1,0,0,1,1.33,3.38,4.61,4.61,0,0,1-1.32,3.25l-.13.13.12.2a5.1,5.1,0,0,1,1.33,3.38,4.61,4.61,0,0,1-1.32,3.25l-.13.13.12.2a5.1,5.1,0,0,1,1.33,3.38,4.61,4.61,0,0,1-1.32,3.25l-.13.13.12.2a5.1,5.1,0,0,1,1.33,3.38,4.61,4.61,0,0,1-1.32,3.25l-.13.13.12.2a5.1,5.1,0,0,1,1.33,3.38,4.61,4.61,0,0,1-1.32,3.25l-.13.13.12.2a5.1,5.1,0,0,1,1.33,3.38,4.61,4.61,0,0,1-1.32,3.25l-.13.13.12.2a5.1,5.1,0,0,1,1.33,3.38,4.08,4.08,0,0,1-3.79,4.32Zm12.33-6.83a17.14,17.14,0,0,1-5.16,4.55l-.92.52,15,.07a2.71,2.71,0,0,0,0-5.28H49ZM35.28,29.2A15.4,15.4,0,1,0,50.72,44.6,15.39,15.39,0,0,0,35.28,29.2ZM8.11,54.72a2.71,2.71,0,0,0,0,5.28H27.69l-.89-.6a17.07,17.07,0,0,1-5.19-4.63l-.1-.11-.3,0-.28,0Zm0-7a2.71,2.71,0,0,0,0,5.28H20.24l-.09-.34A22.29,22.29,0,0,1,18.58,48l0-.16Zm44,.25a16.92,16.92,0,0,1-1.65,4.56l-.15.29,7.64.18a2.71,2.71,0,0,0,0-5.28H52.11Zm-44-7.21A2.41,2.41,0,0,0,6,43.44a2.41,2.41,0,0,0,2.11,2.64h10l.14-.48v-.31c0-.24,0-.47,0-.69a17.37,17.37,0,0,1,.34-3.42l0-.24Zm43.84.38a17.22,17.22,0,0,1,.36,3,1.37,1.37,0,0,1,.09.44c0,.31,0,.63,0,.94l0,.41,5.56.13A2.41,2.41,0,0,0,60,43.44a2.41,2.41,0,0,0-2.11-2.64h-6Zm-3.08-6.83a17.17,17.17,0,0,1,2.45,4.56v0l.08.13,6.49.06A2.41,2.41,0,0,0,60,36.48a2.41,2.41,0,0,0-2.11-2.64H48.48ZM8.11,33.84A2.41,2.41,0,0,0,6,36.48a2.41,2.41,0,0,0,2.11,2.64h11l.06-.15a19,19,0,0,1,2.52-4.61L22,33.9Zm30.16-7a1.75,1.75,0,0,0-.8.22l-.79.41.89.2a16.88,16.88,0,0,1,9.25,4.37l11.08.09A2.41,2.41,0,0,0,60,29.52a2.41,2.41,0,0,0-2.11-2.64Zm0-7a2.41,2.41,0,0,0-2.1,2.64,2.41,2.41,0,0,0,2.1,2.64H57.89A2.41,2.41,0,0,0,60,22.56a2.41,2.41,0,0,0-2.11-2.64Zm0-7a2.41,2.41,0,0,0-2.1,2.64,2.41,2.41,0,0,0,2.1,2.64H57.89A2.41,2.41,0,0,0,60,15.6,2.41,2.41,0,0,0,57.89,13Zm0-7a2.41,2.41,0,0,0-2.1,2.64,2.41,2.41,0,0,0,2.1,2.64H57.89A2.41,2.41,0,0,0,60,8.64,2.41,2.41,0,0,0,57.89,6Z" transform="translate(-4.32 -4.32)"/><text class="cls-2" transform="translate(21.87 45.46) scale(1.08 1)">$</text></svg>