<svg id="Layer_13" data-name="Layer 13" xmlns="http://www.w3.org/2000/svg" viewBox="0 0 60.32 52.58"><defs><style>.cls-1{fill:#606a71;}</style></defs><title>General</title><path class="cls-1" d="M39.32,37.58l.2,2.27-2.81,1.3-.59,3.33,2.19,2.18-1,2.07-3.08-.28L32.1,51l.81,3L31,55.34l-2.53-1.78-3.18,1.16-.79,3-2.27.2L21,55.1l-3.33-.59L15.46,56.7l-2.07-1,.28-3.08-2.59-2.17-3,.81L6.79,49.43,8.57,46.9,7.41,43.72l-3-.79-.2-2.27L7,39.35,7.62,36,5.42,33.84l1-2.07,3.08.28,2.17-2.59-.81-3,1.87-1.31,2.53,1.78,3.18-1.16.79-3,2.27-.2,1.3,2.81,3.33.59,2.18-2.19,2.07,1-.28,3.08L32.67,30l3-.81L37,31.08l-1.78,2.53,1.16,3.18Zm-2-1.88-.69-1.9,1.91-2.72L36.2,27.71,33,28.58l-1.55-1.3.3-3.31L28,22.23l-2.35,2.36-2-.35-1.4-3-4.1.36-.85,3.22-1.9.69L12.7,23.57,9.33,25.93l.87,3.21L8.9,30.69l-3.31-.3L3.85,34.12l2.36,2.35-.35,2-3,1.4L3.2,44l3.22.85.69,1.9L5.19,49.43,7.55,52.8l3.21-.87,1.55,1.3L12,56.54l3.73,1.74,2.35-2.36,2,.35,1.4,3,4.1-.36.85-3.22,1.9-.69L31,56.94l3.37-2.36-.87-3.21,1.3-1.55,3.31.3,1.74-3.73L37.54,44l.35-2,3-1.4-.36-4.1Z" transform="translate(-2.84 -6.71)"/><path class="cls-1" d="M29.37,40.26a7.5,7.5,0,1,1-7.5-7.5A7.51,7.51,0,0,1,29.37,40.26Zm-16.3,0a8.81,8.81,0,1,0,8.81-8.81A8.82,8.82,0,0,0,13.07,40.26Z" transform="translate(-2.84 -6.71)"/><path class="cls-1" d="M54.31,9.57,56.57,11l-1.29,3.6,2,2.82h3.82l.58,2.61L58.2,21.68l-.6,3.39,2.7,2.71L58.86,30l-3.6-1.29-2.82,2v3.82l-2.61.58-1.63-3.46-3.39-.6-2.71,2.7-2.26-1.44,1.29-3.6-2-2.82H35.32l-.58-2.61,3.46-1.63.6-3.39-2.7-2.71,1.44-2.26,3.6,1.29,2.82-2V8.8l2.61-.58,1.63,3.46,3.39.6Zm-5.21.93L47.31,6.71l-4.66,1v4.19l-1.71,1.2L37,11.72l-2.56,4,3,3L37,20.77l-3.79,1.79,1,4.66h4.19l1.2,1.71-1.42,3.94,4,2.56,3-3,2.06.36,1.79,3.79,4.66-1V31.41l1.71-1.2,3.94,1.42,2.56-4-3-3,.36-2.06,3.79-1.79-1-4.66H57.94l-1.2-1.71,1.42-3.94-4-2.56-3,3Z" transform="translate(-2.84 -6.71)"/><path class="cls-1" d="M50.5,16.72a5.47,5.47,0,0,1,3.16,5,5.46,5.46,0,0,1-7.76,5,5.47,5.47,0,0,1-3.16-5,5.46,5.46,0,0,1,7.76-5Zm-9.07,5a6.77,6.77,0,1,0,4.45-6.36A6.74,6.74,0,0,0,41.43,21.67Z" transform="translate(-2.84 -6.71)"/></svg>