<svg id="Layer_12" data-name="Layer 12" xmlns="http://www.w3.org/2000/svg" viewBox="0 0 61.47 57.37"><defs><style>.cls-1{fill:#606a71;fill-rule:evenodd;}</style></defs><title>Humanities</title><path class="cls-1" d="M52.59,61.68a.83.83,0,0,1-.81-.63l-1-4.13a.83.83,0,0,1,.61-1l.2,0a.83.83,0,0,1,.8.63l1,4.13a.83.83,0,0,1-.6,1Zm-4.12,0a.83.83,0,0,1-.83-.83V57.76a.83.83,0,0,1,1.66,0v3.09A.83.83,0,0,1,48.47,61.68Zm-4.12,0-.2,0a.83.83,0,0,1-.61-1l1-4.13a.83.83,0,0,1,.8-.63l.2,0a.83.83,0,0,1,.61,1l-1,4.13A.83.83,0,0,1,44.34,61.68Zm4.12-6.19a2.89,2.89,0,0,1-1-5.61l.13,0V24.14l-12-4.48-.08.05a4.77,4.77,0,0,1-2.56.7c-2.2,0-3.92-1.27-3.92-2.89S30.8,14.63,33,14.63s3.92,1.27,3.92,2.89a2.26,2.26,0,0,1-.09.61l0,.18,11.59,4.33,12.36-5.12L33,6,5.27,17.53,33,29l10.5-4.34a.83.83,0,0,1,1.08,1.09.82.82,0,0,1-.45.45L33.32,30.67a.83.83,0,0,1-.63,0L2.78,18.3a.83.83,0,0,1,0-1.54L32.68,4.38a.84.84,0,0,1,.64,0L63.22,16.76a.83.83,0,0,1,0,1.54L49.3,24.06v2.3L62.08,21.1v-.47a.83.83,0,1,1,1.66,0v1a.83.83,0,0,1-.51.77L49.3,28.15V41.58l.35-.36A10.79,10.79,0,0,0,51.75,38l0-7.1a.83.83,0,1,1,1.66,0v7.22a.83.83,0,0,1,0,.27,12.41,12.41,0,0,1-4,5.25l-.08.06v6.09l.13,0a2.89,2.89,0,0,1-1,5.61Zm0-4.13A1.23,1.23,0,1,0,49.7,52.6,1.23,1.23,0,0,0,48.47,51.37ZM33,16.3c-1.33,0-2.26.65-2.26,1.23s.93,1.23,2.26,1.23,2.26-.65,2.26-1.23S34.33,16.3,33,16.3Zm0,33c-15.83,0-20.19-10.4-20.37-10.84a.84.84,0,0,1-.06-.31V30.94a.83.83,0,1,1,1.66,0v7C15,39.55,19.12,47.19,32,47.6h.21V38.16a.83.83,0,0,1,1.66,0v9.46H34A24.13,24.13,0,0,0,44,45.34a.83.83,0,1,1,.74,1.49A26.29,26.29,0,0,1,33,49.3Zm0-14.44a.82.82,0,0,1-.32-.06L2.78,22.42a.83.83,0,0,1-.51-.77v-1a.83.83,0,1,1,1.66,0v.48L33,33.13l11-4.56a.83.83,0,0,1,.64,1.54L33.32,34.8A.83.83,0,0,1,33,34.86Z" transform="translate(-2.26 -4.32)"/></svg>