<svg id="Layer_4" data-name="Layer 4" xmlns="http://www.w3.org/2000/svg" viewBox="0 0 58.34 47.15"><defs><style>.cls-1{fill:#606a71;}</style></defs><title>IT &amp;amp; Mobile</title><path class="cls-1" d="M20.75,56.57a.78.78,0,1,1,0-1.55h2.32L24,47.3H5.94a2.12,2.12,0,0,1-2.11-2.13V11.56A2.12,2.12,0,0,1,5.94,9.43H55.18a2.08,2.08,0,0,1,1.49.63,2.13,2.13,0,0,1,.62,1.51V30.33H55.73V11.56a.57.57,0,0,0-.55-.58H5.94a.57.57,0,0,0-.55.58V40.65h41.9V42.2H5.38v3a.56.56,0,0,0,.55.57H47.28V47.3H37.12L38,55h2.32a.78.78,0,0,1,0,1.55ZM36.48,55l-.92-7.72h-10L24.63,55Z" transform="translate(-3.83 -9.43)"/><path class="cls-1" d="M55,54.5a.93.93,0,1,1,.93-.93A.93.93,0,0,1,55,54.5Zm0-1.18a.25.25,0,1,0,.25.25A.25.25,0,0,0,55,53.32Z" transform="translate(-3.83 -9.43)"/><path class="cls-1" d="M50.79,56.53a3,3,0,0,1-3-3V34a3,3,0,0,1,3-3h8.37a3,3,0,0,1,3,3V53.57a3,3,0,0,1-3,3Zm-1.48-3a1.49,1.49,0,0,0,1.48,1.49h8.42a1.49,1.49,0,0,0,1.49-1.49V52H49.31Zm11.39-3V34.38H49.31V50.53Zm-.49-17.61a1.55,1.55,0,0,0-1-.42H50.79a1.48,1.48,0,0,0-1,.42Z" transform="translate(-3.83 -9.43)"/></svg>