<svg id="Layer_1" data-name="Layer 1" xmlns="http://www.w3.org/2000/svg" viewBox="0 0 41 41">
<defs><style>.cls-1{fill:none;}.cls-2{fill:#fff;}</style></defs>
<title>key</title>
<path class="cls-1" d="M28.59,2.07A11.39,11.39,0,1,0,40,13.46,11.39,11.39,0,0,0,28.59,2.07Zm3.8,12.15a4.56,4.56,0,1,1,4.56-4.56A4.56,4.56,0,0,1,32.39,14.22Z"/>
<path class="cls-1" d="M16.7,19,1.52,34.17v5.31H6.07V34.93h4.56V30.37h5.31L22,24.3A13,13,0,0,1,16.7,19Z"/>
<path class="cls-2" d="M31.89,4.56a4.56,4.56,0,1,0,4.56,4.56A4.56,4.56,0,0,0,31.89,4.56Zm0,7.59a3,3,0,1,1,3-3A3,3,0,0,1,31.89,12.15Z"/>
<path class="cls-2" d="M28.09,0A12.92,12.92,0,0,0,16,17.41l-16,16V41H7.59V36.44h4.56V31.89H16.7L23.59,25A12.91,12.91,0,1,0,28.09,0ZM15.94,30.37H10.63v4.56H6.07v4.56H1.52V34.17L16.7,19A13,13,0,0,0,22,24.3ZM28.09,24.3A11.39,11.39,0,1,1,39.48,12.91,11.39,11.39,0,0,1,28.09,24.3Z"/></svg>