<svg id="Слой_1" data-name="Слой 1" xmlns="http://www.w3.org/2000/svg" viewBox="0 0 33 33"><defs><style>.cls-1{fill:#fff;}</style></defs><title>Languages icon</title><metadata><?xpacket begin="﻿" id="W5M0MpCehiHzreSzNTczkc9d"?>
<x:xmpmeta xmlns:x="adobe:ns:meta/" x:xmptk="Adobe XMP Core 5.6-c111 79.158366, 2015/09/25-01:12:00        ">
   <rdf:RDF xmlns:rdf="http://www.w3.org/1999/02/22-rdf-syntax-ns#">
      <rdf:Description rdf:about=""
            xmlns:dc="http://purl.org/dc/elements/1.1/"
            xmlns:xmp="http://ns.adobe.com/xap/1.0/"
            xmlns:xmpMM="http://ns.adobe.com/xap/1.0/mm/"
            xmlns:stEvt="http://ns.adobe.com/xap/1.0/sType/ResourceEvent#">
         <dc:title>
            <rdf:Alt>
               <rdf:li xml:lang="x-default">Languages icon</rdf:li>
            </rdf:Alt>
         </dc:title>
         <xmp:Rating>5</xmp:Rating>
         <xmp:MetadataDate>2016-10-09T10:15:46+03:00</xmp:MetadataDate>
         <xmpMM:InstanceID>xmp.iid:44bbf5f0-1a10-eb48-bfc7-846f24cb6999</xmpMM:InstanceID>
         <xmpMM:DocumentID>xmp.did:44bbf5f0-1a10-eb48-bfc7-846f24cb6999</xmpMM:DocumentID>
         <xmpMM:OriginalDocumentID>xmp.did:44bbf5f0-1a10-eb48-bfc7-846f24cb6999</xmpMM:OriginalDocumentID>
         <xmpMM:History>
            <rdf:Seq>
               <rdf:li>
                  <rdf:Description>
                     <stEvt:action>saved</stEvt:action>
                     <stEvt:instanceID>xmp.iid:44bbf5f0-1a10-eb48-bfc7-846f24cb6999</stEvt:instanceID>
                     <stEvt:when>2016-10-09T10:15:46+03:00</stEvt:when>
                     <stEvt:softwareAgent>Adobe Bridge CC 2015 (Windows)</stEvt:softwareAgent>
                     <stEvt:changed>/metadata</stEvt:changed>
                  </rdf:Description>
               </rdf:li>
            </rdf:Seq>
         </xmpMM:History>
      </rdf:Description>
   </rdf:RDF>
</x:xmpmeta>
                                                                                                    
                                                                                                    
                                                                                                    
                                                                                                    
                                                                                                    
                                                                                                    
                                                                                                    
                                                                                                    
                                                                                                    
                                                                                                    
                                                                                                    
                                                                                                    
                                                                                                    
                                                                                                    
                                                                                                    
                                                                                                    
                                                                                                    
                                                                                                    
                                                                                                    
                                                                                                    
                           
<?xpacket end="w"?></metadata>
<path class="cls-1" d="M17.06.5H17a16.5,16.5,0,0,0,0,33h.06a16.5,16.5,0,0,0,0-33Zm9.23,16.14a27.22,27.22,0,0,0-1.5-8.87,27.2,27.2,0,0,0,3.81-1.45,15.72,15.72,0,0,1,4.18,10.33ZM20.45,32.37v0a15.71,15.71,0,0,1-3.08.37V26a26.49,26.49,0,0,1,6.2.81A26.51,26.51,0,0,1,20.45,32.37ZM24.26,27a26.42,26.42,0,0,1,3.65,1.34,15.8,15.8,0,0,1-6.41,3.74A27.15,27.15,0,0,0,24.26,27ZM14.06,32.45a26.51,26.51,0,0,1-3.2-5.7A26.52,26.52,0,0,1,16.64,26v6.73a15.81,15.81,0,0,1-2.56-.26A.34.34,0,0,0,14.06,32.45Zm-1-.16a15.78,15.78,0,0,1-7-3.9,26.34,26.34,0,0,1,4.07-1.45A27.18,27.18,0,0,0,13.06,32.28Zm.53-30.7a15.84,15.84,0,0,1,3-.36V8.17a26.5,26.5,0,0,1-6.07-.78,26.45,26.45,0,0,1,3-5.77Zm7.34.13a26.45,26.45,0,0,1,2.91,5.56,26.47,26.47,0,0,1-6.49.89V1.23A15.71,15.71,0,0,1,20.94,1.72Zm-4.3,7.17v7.75H8.89a26.52,26.52,0,0,1,1.43-8.57A27.24,27.24,0,0,0,16.64,8.89Zm0,8.47v8a27.22,27.22,0,0,0-6.06.76A26.42,26.42,0,0,1,8.9,17.36Zm.72,8v-8h8.2a26.41,26.41,0,0,1-1.73,8.82A27.2,27.2,0,0,0,17.36,25.32Zm0-8.68V8.89A27.18,27.18,0,0,0,24.1,8a26.52,26.52,0,0,1,1.47,8.68ZM28.06,5.76a26.43,26.43,0,0,1-3.52,1.33A27.12,27.12,0,0,0,22,2,15.82,15.82,0,0,1,28.06,5.76ZM7.94,4.08a15.69,15.69,0,0,1,4.63-2.23,27.1,27.1,0,0,0-2.7,5.36A26.39,26.39,0,0,1,5.93,5.76,15.82,15.82,0,0,1,7.94,4.08ZM5.4,6.31A27.13,27.13,0,0,0,9.63,7.89a27.23,27.23,0,0,0-1.46,8.75H1.22A15.8,15.8,0,0,1,5.4,6.31Zm2.78,11a27.13,27.13,0,0,0,1.7,8.9,27.09,27.09,0,0,0-4.34,1.58A15.72,15.72,0,0,1,1.22,17.36ZM28.46,27.83a27.17,27.17,0,0,0-3.93-1.47,27.13,27.13,0,0,0,1.75-9h6.5A15.72,15.72,0,0,1,28.46,27.83Z" transform="translate(-0.5 -0.5)"/></svg>