<svg id="Layer_1" data-name="Layer 1" xmlns="http://www.w3.org/2000/svg" viewBox="0 0 77 77"><defs><style>.cls-1{fill:#dedddd;}</style></defs><title>Languages arrow</title><path class="cls-1" d="M39,77.5A38.5,38.5,0,1,1,77.5,39,38.54,38.54,0,0,1,39,77.5Zm0-75A36.47,36.47,0,1,0,75.47,39,36.51,36.51,0,0,0,39,2.53Zm3.22,55a1,1,0,0,1-.73-.31,1.09,1.09,0,0,1,0-1.5L57.73,39.89h-40a.9.9,0,1,1,0-1.79h40L41.51,22.3a1,1,0,0,1,.71-1.79,1,1,0,0,1,.71.28l18,17.49a1,1,0,0,1,0,1.45l-18,17.49A1,1,0,0,1,42.22,57.51Z" transform="translate(-0.5 -0.5)"/></svg>