<svg id="Layer_9" data-name="Layer 9" xmlns="http://www.w3.org/2000/svg" viewBox="0 0 57.98 58.01"><defs><style>.cls-1{fill:#606a71;}</style></defs><title>Legal</title><path class="cls-1" d="M17.72,62V59.47a2.54,2.54,0,0,1,2.54-2.54h.55l0,0H32.28V7.4L16.59,11.82l8.77,14.36v0l.05.06v0l0,.07v0l0,.07v0l0,.07A10.74,10.74,0,1,1,4,26.61a.67.67,0,0,1,.12-.39l8.8-14.39-.32,0a3.49,3.49,0,0,1-2.11-1l-.06-.06a3.43,3.43,0,0,1-.95-2.18h1.43a2,2,0,0,0,2,1.82h.87l.35-.57a.7.7,0,0,1,.24-.24.71.71,0,0,1,.37-.1.7.7,0,0,1,.61.34l.35.57h.78L32.29,5.94V4h1.42V5.94l15.74,4.43h.83l.35-.57a.7.7,0,0,1,.24-.24.71.71,0,0,1,.37-.1.7.7,0,0,1,.61.34l.35.57h.88a2,2,0,0,0,1.43-.59l.06-.06h0a2,2,0,0,0,.53-1.17h1.43a3.46,3.46,0,0,1-3.12,3.24l-.32,0L61.87,26.2v0l.06.06v.05l0,.08v0l0,.06v.11a10.74,10.74,0,0,1-21.48,0,.67.67,0,0,1,.12-.39l8.79-14.38L33.74,7.43v49.5H45.8a2.55,2.55,0,0,1,2.54,2.54V62Zm2.49-3.68a1.11,1.11,0,0,0-1.11,1.11v1.11H46.87V59.43a1.11,1.11,0,0,0-1.11-1.11ZM42,27.53a9.33,9.33,0,0,0,15.82,5.71,9.44,9.44,0,0,0,2.73-5.71l0-.22H41.93Zm-36.49,0a9.33,9.33,0,0,0,15.82,5.71A9.43,9.43,0,0,0,24,27.53l0-.22H5.44ZM51,11.89l-8.55,14H60l-.18-.3L51.39,11.8h-.22Zm-36.49,0L6,25.88H23.5l-.18-.3L14.9,11.8h-.22Z" transform="translate(-4.01 -4)"/></svg>