<svg id="Layer_1" data-name="Layer 1" xmlns="http://www.w3.org/2000/svg" viewBox="0 0 53.13 34"><defs><style>.cls-1{fill:none;}.cls-2{fill:#fff;}</style></defs><title>mail</title><path class="cls-1" d="M30.45,17.33l7.73,6.73a1,1,0,0,0,.32-.73v-12a1,1,0,0,0-.31-.73Z" transform="translate(-0.44 -0.33)"/><polygon class="cls-1" points="26.56 20 23.86 17.65 16.56 24 36.56 24 29.26 17.65 26.56 20"/><path class="cls-2" d="M49.3.33H4.7A4.25,4.25,0,0,0,.44,4.57V30.1A4.24,4.24,0,0,0,4.7,34.33H49.3a4.25,4.25,0,0,0,4.26-4.24V4.57A4.24,4.24,0,0,0,49.3.33ZM48.25,2.46,27,20.95,5.75,2.46Zm-45,29.17a2.14,2.14,0,0,1-.67-1.56V4.6A2.14,2.14,0,0,1,3.23,3L19.67,17.33Zm2.52.58L21.26,18.72l5.74,5,5.74-5L48.25,32.21Zm45.69-2.14a2.14,2.14,0,0,1-.67,1.56L34.33,17.33,50.77,3a2.14,2.14,0,0,1,.67,1.56Z" transform="translate(-0.44 -0.33)"/></svg>