<svg id="Layer_14" data-name="Layer 14" xmlns="http://www.w3.org/2000/svg" viewBox="0 0 59.28 57.83"><defs><style>.cls-1{fill:#606a71;}</style></defs><title>Marketing</title><path class="cls-1" d="M21.76,51.41a3.9,3.9,0,0,1-3.81-3.12L11,16.51a.64.64,0,0,1-.09-.33L9.52,9.8a2.43,2.43,0,0,0-2.34-2H4.1a.74.74,0,0,1,0-1.48H7.18A3.9,3.9,0,0,1,11,9.5l1.3,5.94h9.31L23,16.75l.17.17H12.6l5.7,26L53,39.8a2.59,2.59,0,0,0,2.42-1.93l5.53-21H48.38l1.14-1.45,12.38,0a.74.74,0,0,1,.72.93L56.85,38.22a4,4,0,0,1-3.72,3.07l-34.5,3.15L19.4,48a2.42,2.42,0,0,0,2.36,1.95H53.52a.74.74,0,1,1,0,1.48Z" transform="translate(-3.36 -4.08)"/><path class="cls-1" d="M22.8,61.92a4,4,0,1,1,4-4A4,4,0,0,1,22.8,61.92Zm0-6.4a2.45,2.45,0,1,0,1.73,4.17A2.42,2.42,0,0,0,25.24,58,2.45,2.45,0,0,0,22.8,55.52Z" transform="translate(-3.36 -4.08)"/><path class="cls-1" d="M51,61.92a4,4,0,1,1,4-4A4,4,0,0,1,51,61.92Zm0-6.4A2.45,2.45,0,1,0,53.41,58,2.45,2.45,0,0,0,51,55.52Z" transform="translate(-3.36 -4.08)"/><path class="cls-1" d="M35.74,28.72a.74.74,0,0,1-.58-.28L24.45,14.81a.74.74,0,0,1,1.17-.92L35.74,26.78,53.34,4.37a.74.74,0,1,1,1.17.92L36.33,28.44A.74.74,0,0,1,35.74,28.72Z" transform="translate(-3.36 -4.08)"/></svg>