<svg id="Layer_8" data-name="Layer 8" xmlns="http://www.w3.org/2000/svg" viewBox="0 0 50.91 58.38"><defs><style>.cls-1{fill:#606a71;}</style></defs><title>Medical</title><path class="cls-1" d="M35.55,62.19A16.14,16.14,0,0,1,19.42,46.07V35H15.18A7.65,7.65,0,0,1,7.54,27.4V5.34a.85.85,0,0,1,.85-.85h2.13l.05-.07a1.52,1.52,0,0,1,2.74.92,1.52,1.52,0,0,1-2.74.92l-.05-.07H9.24V27.4a6,6,0,0,0,5.94,5.94H25.36A6,6,0,0,0,31.3,27.4V6.18H28.76a.85.85,0,0,1-.25,0l-.12,0-.07.1a1.53,1.53,0,1,1,0-1.74l.07.1.12,0a.85.85,0,0,1,.25,0h3.39a.85.85,0,0,1,.85.85V27.4A7.64,7.64,0,0,1,25.36,35H21.12v11a14.43,14.43,0,0,0,28.85,0v-23l-.15,0a7.64,7.64,0,1,1,2,0l-.15,0v23A16.14,16.14,0,0,1,35.55,62.19ZM50.82,9.58a5.94,5.94,0,1,0,5.94,5.94A5.95,5.95,0,0,0,50.82,9.58Z" transform="translate(-7.54 -3.81)"/><path class="cls-1" d="M50.82,19.76a4.24,4.24,0,1,1,4.24-4.24A4.25,4.25,0,0,1,50.82,19.76Zm0-6.79a2.55,2.55,0,1,0,2.55,2.55A2.55,2.55,0,0,0,50.82,13Z" transform="translate(-7.54 -3.81)"/></svg>