<svg id="Layer_2" data-name="Layer 2" xmlns="http://www.w3.org/2000/svg" viewBox="0 0 66.23 74.3">
<title>money</title>
<path d="M29.8,74C13.21,74,2.33,73,2.33,58.6c0-11.19,10.25-23.57,17-31.77l1.46-1.77a.81.81,0,0,0-1.25-1l-1.45,1.76C11.19,34.18.72,46.83.72,58.6c0,17,14.78,17,29.08,17,6.27,0,11.9-.1,16.56-1.15L45.79,73C41.34,73.95,35.88,74,29.8,74Z" transform="translate(-0.72 -1.35)"/>
<path d="M40.46,24.52l-.39-.46a.81.81,0,1,0-1.23,1l.39.46c5.93,7,13.91,16.42,16.87,25.94l1.86.68C55.21,41.94,46.72,31.9,40.46,24.52Z" transform="translate(-0.72 -1.35)"/><path d="M42.11,20.65a.81.81,0,0,0-.81-.81H17.48a.81.81,0,1,0,0,1.62H41.3A.81.81,0,0,0,42.11,20.65Z" transform="translate(-0.72 -1.35)"/>
<path d="M19.95,17.17A.81.81,0,1,0,21.07,16l-4.62-4.44a1.16,1.16,0,0,1-.29-1c.13-.4.83-1.42,4.51-2.18.85-.18,1.15.23,1.68,2.29.4,1.53.94,3.62,3.07,3.47,1.7-.13,2-1.77,2.35-3.36.4-2,.86-4.27,3.62-5.27l.22-.08c3.11-1.12,9.6-3.46,11.44-2,.24.18.55.53.48,1.47-.38,5-5.05,11.52-5.1,11.59a.81.81,0,1,0,1.31.94c.2-.28,5-7,5.4-12.41A3.08,3.08,0,0,0,44,2.11c-2.35-1.79-7.7-.09-13,1.81L30.84,4c-3.62,1.31-4.25,4.41-4.66,6.47-.28,1.41-.45,2-.89,2.06-.66.05-.93-.55-1.38-2.26s-1-4-3.57-3.47c-3.39.7-5.26,1.78-5.73,3.3a2.73,2.73,0,0,0,.69,2.61Z" transform="translate(-0.72 -1.35)"/>
<path d="M25.59,39.1A4.73,4.73,0,0,1,27.24,38a6.37,6.37,0,0,1,2.46-.44,5.94,5.94,0,0,1,2.44.45,4.46,4.46,0,0,1,1.6,1.18,5.1,5.1,0,0,1,1,1.75.81.81,0,0,0,1.54-.49A6.7,6.7,0,0,0,35,38.15a6.07,6.07,0,0,0-2.17-1.61A7,7,0,0,0,30.51,36V34.65a.81.81,0,0,0-1.62,0V36a7.45,7.45,0,0,0-2.28.53A6.32,6.32,0,0,0,24.42,38a6.11,6.11,0,0,0-1.29,2.08,6.87,6.87,0,0,0-.42,2.37,7,7,0,0,0,.52,2.89,5.55,5.55,0,0,0,1.39,1.91,7,7,0,0,0,2,1.22,22.65,22.65,0,0,0,2.33.78q1.19.33,2.32.67a7.79,7.79,0,0,1,2,.9,4.62,4.62,0,0,1,1.43,1.49,4.8,4.8,0,0,1,.58,2.49A6.71,6.71,0,0,1,35,56.88a4.71,4.71,0,0,1-1,1.7,4.37,4.37,0,0,1-1.62,1.12,6.09,6.09,0,0,1-2.32.4,7.11,7.11,0,0,1-2.16-.32,4.75,4.75,0,0,1-1.79-1,5.6,5.6,0,0,1-1.32-1.93.81.81,0,1,0-1.48.64A7.19,7.19,0,0,0,25,59.93a6.36,6.36,0,0,0,2.4,1.39,8.3,8.3,0,0,0,1.5.32v1.43a.81.81,0,0,0,1.62,0V61.7A7.41,7.41,0,0,0,33,61.19a6,6,0,0,0,2.21-1.54,6.33,6.33,0,0,0,1.29-2.28,8.35,8.35,0,0,0,.39-2.56,6.37,6.37,0,0,0-.81-3.33,6.21,6.21,0,0,0-1.93-2,9.41,9.41,0,0,0-2.39-1.1Q30.6,48,29.39,47.7A21.07,21.07,0,0,1,27.23,47,5.36,5.36,0,0,1,25.67,46a4,4,0,0,1-1-1.36,5.46,5.46,0,0,1-.37-2.22,5.28,5.28,0,0,1,.33-1.82A4.53,4.53,0,0,1,25.59,39.1Z" transform="translate(-0.72 -1.35)"/>
<path d="M50.78,75.65h0a.81.81,0,0,1-.71-.53L41.15,50.89a.81.81,0,0,1,1-1l24.23,8.87a.81.81,0,0,1,.08,1.48l-10,5-5,10A.81.81,0,0,1,50.78,75.65ZM43.27,52l7.63,20.84,4.28-8.57a.81.81,0,0,1,.36-.36L64.1,59.6Z" transform="translate(-0.72 -1.35)"/></svg>