<svg id="Layer_4" data-name="Layer 4" xmlns="http://www.w3.org/2000/svg" xmlns:xlink="http://www.w3.org/1999/xlink" viewBox="0 0 31 31"><defs><style>.cls-1{fill:none;}.cls-2{clip-path:url(#clip-path);}.cls-3{fill:#e12300;}.cls-4{fill:#fff;}</style><clipPath id="clip-path" transform="translate(-0.5 -0.5)"><rect class="cls-1" x="0.5" y="0.5" width="31" height="31"/></clipPath></defs><title>pdf</title><g class="cls-2"><circle class="cls-3" cx="15.5" cy="15.5" r="15.5"/></g><g class="cls-2"><path class="cls-4" d="M25.62,19.13a4.66,4.66,0,0,1-2-.44A14.57,14.57,0,0,1,22.13,18a8.16,8.16,0,0,1,3.18.26C25.8,18.43,26.58,19,25.62,19.13ZM13.3,19.3c.71-1.44,1.29-3,1.86-4.45.22-.57.43-1.13.63-1.7a15.52,15.52,0,0,0,.93,1.71,10,10,0,0,0,2.71,2.75A30.91,30.91,0,0,0,13.3,19.3ZM8,24.37c-.4,0,0-.8,0-.94a3.61,3.61,0,0,1,1.15-1.21,15.43,15.43,0,0,1,2.54-1.49c-.21.38-.43.75-.67,1.11C10.44,22.72,9.19,24.45,8,24.37ZM15.81,5.71c.42.16.49.82.53,1.19a8.88,8.88,0,0,1-.48,3.36,14.37,14.37,0,0,1-.51-3.34C15.36,6.73,15.4,5.55,15.81,5.71ZM22,17.25l-1,.12a11.45,11.45,0,0,1-3.36-3.15,12.77,12.77,0,0,1-1.33-2.6,25.7,25.7,0,0,0,.93-3.72c.16-1,.32-3.1-1.19-3-1.22.05-1.65,1.58-1.68,2.54A14.44,14.44,0,0,0,15.31,12a62.87,62.87,0,0,1-2.56,6.6c-.17.38-.35.76-.54,1.14A12.12,12.12,0,0,0,7.41,23c-.33.43-.78,1.21-.55,1.77S8,25.18,8.5,25a10.27,10.27,0,0,0,4.33-4.75,28.82,28.82,0,0,1,7.55-2,18.22,18.22,0,0,0,2.47,1.23c1.19.49,3.86,1.06,4.27-.78S22.87,17.16,22,17.25Z" transform="translate(-0.5 -0.5)"/></g></svg>