<svg id="Layer_2" data-name="Layer 2" xmlns="http://www.w3.org/2000/svg" xmlns:xlink="http://www.w3.org/1999/xlink" viewBox="0 0 31 31"><defs><style>.cls-1{fill:none;}.cls-2{clip-path:url(#clip-path);}.cls-3{fill:#d24628;}.cls-4{fill:#fff;}</style><clipPath id="clip-path" transform="translate(-0.5 -0.5)"><rect class="cls-1" x="0.5" y="0.5" width="31" height="31"/></clipPath></defs><title>powerpoint</title><g class="cls-2"><circle class="cls-3" cx="15.5" cy="15.5" r="15.5"/></g><g class="cls-2"><path class="cls-4" d="M20.69,13.43v-3a3,3,0,0,1,3,3Zm4.69-4.54H17.82V12a3,3,0,0,1,2-.73v3h3a3,3,0,0,1-5,2.3v1.94h6.05v.91H17.82v1.21h6.05v.91H17.82v1.51h7.57a.3.3,0,0,0,.3-.3V9.19A.3.3,0,0,0,25.38,8.89Z" transform="translate(-0.5 -0.5)"/></g><g class="cls-2"><path class="cls-4" d="M9.39,12.53l2.7-.32a1.75,1.75,0,0,1,1.49.41,2.42,2.42,0,0,1,.55,1.79,2.67,2.67,0,0,1-.55,1.92,2,2,0,0,1-1.57.49l-1.31-.05v2.47l-1.3-.17V12.53ZM6.31,23.87l10.9,1.82V6.31L6.31,8.13Z" transform="translate(-0.5 -0.5)"/></g><g class="cls-2"><path class="cls-4" d="M12.58,15.32a1.21,1.21,0,0,0,.25-.84,1.06,1.06,0,0,0-.25-.8.9.9,0,0,0-.7-.19l-1.18.09v2h1.18A.91.91,0,0,0,12.58,15.32Z" transform="translate(-0.5 -0.5)"/></g></svg>