<svg id="Layer_2" data-name="Layer 2" xmlns="http://www.w3.org/2000/svg" viewBox="0 0 13.66 13.66"><defs><style>.cls-1{fill:none;}.cls-2{fill:#4e4f51;}</style></defs><title>print</title><rect class="cls-1" width="13.66" height="13.66"/><circle class="cls-2" cx="11.75" cy="5.74" r="0.55"/><path class="cls-2" d="M11.11,5.15a.27.27,0,0,1-.27-.27V1.33H3.19V4.88a.27.27,0,0,1-.55,0V.78h8.74v4.1A.27.27,0,0,1,11.11,5.15Z" transform="translate(-0.19 -0.78)"/><path class="cls-2" d="M11.39,14.44H2.65v-6h8.74Zm-8.2-.55h7.65V9H3.19Z" transform="translate(-0.19 -0.78)"/><path class="cls-2" d="M13,12H11.11a.27.27,0,0,1,0-.55H13a.27.27,0,0,0,.27-.27V5.43A.27.27,0,0,0,13,5.15H1a.27.27,0,0,0-.27.27v5.74a.27.27,0,0,0,.27.27H2.92a.27.27,0,0,1,0,.55H1a.82.82,0,0,1-.82-.82V5.43A.82.82,0,0,1,1,4.61H13a.82.82,0,0,1,.82.82v5.74A.82.82,0,0,1,13,12Z" transform="translate(-0.19 -0.78)"/><path class="cls-2" d="M9.75,10.62H4.29a.27.27,0,0,1,0-.55H9.75a.27.27,0,0,1,0,.55Z" transform="translate(-0.19 -0.78)"/><path class="cls-2" d="M8.66,11.71H4.29a.27.27,0,1,1,0-.55H8.66a.27.27,0,1,1,0,.55Z" transform="translate(-0.19 -0.78)"/><path class="cls-2" d="M9.75,12.8H4.29a.27.27,0,1,1,0-.55H9.75a.27.27,0,1,1,0,.55Z" transform="translate(-0.19 -0.78)"/></svg>