<svg id="Layer_1" data-name="Layer 1" xmlns="http://www.w3.org/2000/svg" viewBox="0 0 40 36.89"><defs><style>.cls-1{fill:#489665;}</style></defs><title>questions</title><path class="cls-1" d="M37.12,3.61a2.34,2.34,0,0,1,2.33,2.33v23.3a2.34,2.34,0,0,1-2.33,2.33H31.29V35.8l-5-3.88-.39-.35h-21a2.34,2.34,0,0,1-2.33-2.33V5.94A2.34,2.34,0,0,1,4.88,3.61H37.12m0-1.55H4.88A3.89,3.89,0,0,0,1,5.94v23.3a3.89,3.89,0,0,0,3.88,3.88H25.31l7.53,5.83V33.12h4.27A3.89,3.89,0,0,0,41,29.24V5.94a3.89,3.89,0,0,0-3.88-3.88Z" transform="translate(-1 -2.05)"/><path class="cls-1" d="M23.47,20.44c-1.67,1.24-1.75,1.71-1.75,2.37v.7H19.23a3.26,3.26,0,0,1-.74-2.14c0-.62.43-1.2,1.67-2.17,1.71-1.36,1.94-1.71,1.94-2.6s-.43-1.36-2-1.36a18.56,18.56,0,0,0-3.34.39l-.16-2.37a12.29,12.29,0,0,1,4-.82c3.34,0,4.78,1.13,4.78,3.81C25.37,18.38,25.06,19.2,23.47,20.44Zm-4.78,4.35H22v3.77H18.69Z" transform="translate(-1 -2.05)"/></svg>