<svg id="Layer_1" data-name="Layer 1" xmlns="http://www.w3.org/2000/svg" viewBox="0 0 6.53 10.9">
<defs><style>.cls-1{fill:#fff;}</style></defs>
title>question</title>
<rect class="cls-1" x="2.47" y="9.38" width="1.46" height="1.52"/><path class="cls-1" d="M10.09,7a3.18,3.18,0,0,1,2.45-1,3.22,3.22,0,0,1,2.31.82,2.78,2.78,0,0,1,.87,2.11,2.25,2.25,0,0,1-.32,1.26,10,10,0,0,1-1.29,1.42,4.11,4.11,0,0,0-.91,1.15,3.6,3.6,0,0,0-.21,1.4H11.7a4.75,4.75,0,0,1,.25-1.69A4.55,4.55,0,0,1,13,11l.59-.58A2.42,2.42,0,0,0,14,9.9a1.86,1.86,0,0,0,.29-1,1.91,1.91,0,0,0-.43-1.25,1.73,1.73,0,0,0-1.42-.53,1.73,1.73,0,0,0-1.69.91,3.52,3.52,0,0,0-.3,1.46H9.2A3.59,3.59,0,0,1,10.09,7Z" transform="translate(-9.2 -6)"/>
</svg>