<svg id="Layer_1" data-name="Layer 1" xmlns="http://www.w3.org/2000/svg" viewBox="0 0 13.77 13.77"><defs><style>.cls-1{fill:#4e4f51;}.cls-2{fill:none;}</style></defs><title>send</title><path class="cls-1" d="M13.89,12.51H.11V2.59H13.89ZM.66,12H13.34V3.14H.66Z" transform="translate(-0.11 -0.66)"/><rect class="cls-2" width="13.77" height="13.77"/><rect class="cls-1" x="11.17" y="6.69" width="0.55" height="5.45" transform="translate(-3.16 11.89) rotate(-51.67)"/><rect class="cls-1" x="-0.19" y="9.07" width="5.69" height="0.55" transform="translate(-5.34 3) rotate(-38.34)"/><path class="cls-1" d="M7,9.47A2,2,0,0,1,5.72,9L.24,4.19.6,3.77,6.08,8.55A1.42,1.42,0,0,0,7,8.92a1.42,1.42,0,0,0,.92-.37L13.4,3.77l.36.41L8.28,9A2,2,0,0,1,7,9.47Z" transform="translate(-0.11 -0.66)"/></svg>