<svg id="Layer_1" data-name="Layer 1" xmlns="http://www.w3.org/2000/svg" viewBox="0 0 57.63 75.75"><title>speed</title><path d="M37.13,35.19a.51.51,0,0,1-.26-.07.73.73,0,0,1-.29-.72,2.39,2.39,0,0,1,.33-1l.72-1.25a1.72,1.72,0,0,1,1.22-1,.51.51,0,0,1,.26.07.57.57,0,0,1,.26.36,2,2,0,0,1-.3,1.38l-.72,1.25a1.72,1.72,0,0,1-1.22,1Z" transform="translate(-1.18 -0.63)"/><path d="M43.08,41a.69.69,0,0,1-.64-.29.57.57,0,0,1,0-.44,2,2,0,0,1,1-1l1.25-.72a2.31,2.31,0,0,1,1.1-.33.7.7,0,0,1,.64.29c.23.4-.17,1.06-.91,1.49l-1.25.72a2.32,2.32,0,0,1-1.1.33Z" transform="translate(-1.18 -0.63)"/><path d="M46,49.12a2,2,0,0,1-1.34-.43.56.56,0,0,1-.18-.4c0-.47.67-.83,1.53-.83h1.44c.86,0,1.53.36,1.53.83s-.67.83-1.53.83Z" transform="translate(-1.18 -0.63)"/><path d="M45.7,58.43a2.33,2.33,0,0,1-1.1-.34l-1.25-.72a2.41,2.41,0,0,1-.8-.71.73.73,0,0,1-.11-.77.69.69,0,0,1,.64-.29,2.33,2.33,0,0,1,1.1.34l1.25.72c.74.43,1.14,1.08.91,1.49a.69.69,0,0,1-.64.29Z" transform="translate(-1.18 -0.63)"/><path d="M38.86,65.42a1.71,1.71,0,0,1-1.22-1l-.72-1.25c-.43-.74-.45-1.51,0-1.74a.51.51,0,0,1,.26-.07,1.71,1.71,0,0,1,1.22,1l.72,1.25c.43.74.45,1.5,0,1.74A.51.51,0,0,1,38.86,65.42Z" transform="translate(-1.18 -0.63)"/><path d="M29.27,68c-.47,0-.83-.67-.83-1.53V65c0-.86.37-1.53.83-1.53s.83.67.83,1.53v1.44C30.1,67.32,29.74,68,29.27,68Z" transform="translate(-1.18 -0.63)"/><path d="M19.68,65.41a.52.52,0,0,1-.26-.07c-.4-.23-.38-1,0-1.74l.72-1.25a1.71,1.71,0,0,1,1.22-1,.52.52,0,0,1,.26.07.57.57,0,0,1,.26.36,2,2,0,0,1-.3,1.38l-.72,1.25a1.71,1.71,0,0,1-1.22,1Z" transform="translate(-1.18 -0.63)"/><path d="M12.85,58.43a.69.69,0,0,1-.64-.29c-.23-.4.17-1.06.91-1.48l1.25-.72a2.33,2.33,0,0,1,1.1-.34.69.69,0,0,1,.64.29.57.57,0,0,1,0,.44,2,2,0,0,1-1,1l-1.25.72a2.32,2.32,0,0,1-1.1.33Z" transform="translate(-1.18 -0.63)"/><path d="M11.1,49.12c-.86,0-1.53-.37-1.53-.83s.67-.83,1.53-.83h1.44c.86,0,1.53.36,1.53.83s-.67.83-1.53.83Z" transform="translate(-1.18 -0.63)"/><path d="M15.47,41a2.33,2.33,0,0,1-1.1-.34l-1.25-.72c-.74-.43-1.14-1.08-.91-1.49a.69.69,0,0,1,.64-.29,2.32,2.32,0,0,1,1.1.34l1.25.72a2,2,0,0,1,1,1,.57.57,0,0,1,0,.44.69.69,0,0,1-.64.29Z" transform="translate(-1.18 -0.63)"/><path d="M21.41,35.19a1.71,1.71,0,0,1-1.22-1L19.47,33c-.43-.74-.45-1.51,0-1.74a.51.51,0,0,1,.26-.07,1.71,1.71,0,0,1,1.22,1l.72,1.25c.43.74.45,1.5,0,1.74a.51.51,0,0,1-.26.07Z" transform="translate(-1.18 -0.63)"/><path d="M29.27,70.78a22.5,22.5,0,1,1,22.5-22.5A22.52,22.52,0,0,1,29.27,70.78Zm0-43.34A20.84,20.84,0,1,0,50.11,48.29,20.86,20.86,0,0,0,29.27,27.45Z" transform="translate(-1.18 -0.63)"/><path d="M29.27,76.38a28.09,28.09,0,0,1-2.93-56V20a9.91,9.91,0,1,1,12.84-9.47,9.83,9.83,0,0,1-7,9.44v.37A27.87,27.87,0,0,1,47.57,27l3.19-3.19-.7-.7,4.38-4.38,4.38,4.38L54.44,27.5l-.7-.7L50.55,30A28.06,28.06,0,0,1,29.27,76.38Zm0-54.52A26.43,26.43,0,1,0,55.7,48.29,26.46,26.46,0,0,0,29.27,21.86ZM48.8,28.12l.63.64,3.13-3.13L51.93,25Zm5.64-3,2-2-2-2-2,2Zm-23.9-5V14.87H28V20.2ZM29.27,2.29a8.24,8.24,0,0,0-2.93,15.94V14.87h-1.4V7.61H33.6v7.25H32.2v3.36A8.23,8.23,0,0,0,29.27,2.29Zm2.66,10.92V9.27H26.61v3.93Z" transform="translate(-1.18 -0.63)"/><path d="M29.27,51.91a3.63,3.63,0,0,1-3.63-3.63,3.58,3.58,0,0,1,1.1-2.59l1.87-13.29a2,2,0,0,1-.17-.86V30.11c0-.86.37-1.53.83-1.53s.83.67.83,1.53v1.44a2.45,2.45,0,0,1-.18.93l1.92,13.29a3.4,3.4,0,0,1,1.06,2.51A3.63,3.63,0,0,1,29.27,51.91Zm0-5.59a2,2,0,1,0,2,2A2,2,0,0,0,29.27,46.32Zm0-1.66a3.3,3.3,0,0,1,.75.09l-.75-5.22-.75,5.22A3.28,3.28,0,0,1,29.27,44.66Z" transform="translate(-1.18 -0.63)"/></svg>