<?xml version="1.0" encoding="utf-8"?>
<!-- Generator: Adobe Illustrator 20.1.0, SVG Export Plug-In . SVG Version: 6.00 Build 0)  -->
<svg version="1.1" id="Layer_1" xmlns="http://www.w3.org/2000/svg" xmlns:xlink="http://www.w3.org/1999/xlink" x="0px" y="0px"
	 viewBox="0 0 50 50" style="enable-background:new 0 0 50 50;" xml:space="preserve">
<style type="text/css">
	.st0{fill:#FFFFFF;}
</style>
<title>support</title>
<g>
	<path class="st0" d="M42,38.5c-1.7,0-3-1.3-3-3v-15c0-1.7,1.3-3,3-3s3,1.3,3,3v15C45,37.2,43.7,38.5,42,38.5z M42,19.5
		c-0.6,0-1,0.4-1,1v15c0,0.6,0.4,1,1,1s1-0.4,1-1v-15C43,19.9,42.6,19.5,42,19.5z"/>
	<path class="st0" d="M28,48.5h-5c-1.7,0-3-1.3-3-3s1.3-3,3-3h5c1.7,0,3,1.3,3,3S29.7,48.5,28,48.5z M23,44.5c-0.6,0-1,0.4-1,1
		s0.4,1,1,1h5c0.6,0,1-0.4,1-1s-0.4-1-1-1H23z"/>
	<path class="st0" d="M43,19.5h-2c0-8.8-7.2-16-16-16s-16,7.2-16,16H7c0-9.9,8.1-18,18-18S43,9.6,43,19.5z"/>
	<path class="st0" d="M44,36.5v-2c2.2,0,4-3,4-6.5s-1.8-6.5-4-6.5v-2c3.4,0,6,3.7,6,8.5S47.4,36.5,44,36.5z"/>
	<path class="st0" d="M8,38.5c-1.7,0-3-1.3-3-3v-15c0-1.7,1.3-3,3-3s3,1.3,3,3v15C11,37.2,9.7,38.5,8,38.5z M8,19.5
		c-0.6,0-1,0.4-1,1v15c0,0.6,0.4,1,1,1s1-0.4,1-1v-15C9,19.9,8.6,19.5,8,19.5z"/>
	<path class="st0" d="M6,36.5c-3.4,0-6-3.7-6-8.5s2.6-8.5,6-8.5v2c-2.2,0-4,3-4,6.5s1.8,6.5,4,6.5V36.5z"/>
	<path class="st0" d="M34,46.5h-4v-2h4c4.5,0,7-2.5,7-7h2C43,43,39.5,46.5,34,46.5z"/>
</g>
</svg>
