<svg id="Layer_11" data-name="Layer 11" xmlns="http://www.w3.org/2000/svg" viewBox="0 0 57.54 57.54"><defs><style>.cls-1{fill:#606a71;}</style></defs><title>Tech</title><path class="cls-1" d="M40.89,61.77a.75.75,0,0,1-.75-.75V49.1h-7V61a.72.72,0,0,1-.21.52A.75.75,0,0,1,31.68,61V49.1H24.74V61a.76.76,0,0,1-.75.75.75.75,0,0,1-.75-.75V49.1H17.65a.75.75,0,0,1-.75-.75V41.64H5a.75.75,0,1,1,0-1.5H16.9V33.2H5a.75.75,0,1,1,0-1.5H16.9v-7H5a.75.75,0,1,1,0-1.5H16.9V17.65a.75.75,0,0,1,.75-.75h5.59V5a.75.75,0,1,1,1.5,0V16.9h6.94V5a.75.75,0,1,1,1.5,0V16.9h7V5a.75.75,0,1,1,1.5,0V16.9h6.71a.75.75,0,0,1,.75.75v5.59H61a.75.75,0,0,1,.75.75.76.76,0,0,1-.75.75H49.1v7H61a.75.75,0,0,1,.75.75.76.76,0,0,1-.75.75H49.1v6.94H61a.75.75,0,0,1,.75.75.76.76,0,0,1-.75.75H49.1v6.71a.74.74,0,0,1-.75.75H41.64V61A.76.76,0,0,1,40.89,61.77ZM18.4,47.59H47.58V18.4H18.4Z" transform="translate(-4.23 -4.23)"/><circle class="cls-1" cx="17.95" cy="17.94" r="1.25"/><circle class="cls-1" cx="39.59" cy="17.94" r="1.25"/><circle class="cls-1" cx="17.95" cy="39.59" r="1.25"/><path class="cls-1" d="M28.16,28.66a.75.75,0,0,1-.75-.75V24.24a.75.75,0,0,1,.75-.75h9.69a.75.75,0,0,1,.75.75v3.67a.75.75,0,0,1-.75.75Zm.75-1.51h8.18V25H28.91Z" transform="translate(-4.23 -4.23)"/><circle class="cls-1" cx="39.59" cy="39.59" r="1.25"/></svg>