<?xml version="1.0" encoding="utf-8"?>
<!-- Generator: Adobe Illustrator 20.1.0, SVG Export Plug-In . SVG Version: 6.00 Build 0)  -->
<svg version="1.1" id="Layer_1" xmlns="http://www.w3.org/2000/svg" xmlns:xlink="http://www.w3.org/1999/xlink" x="0px" y="0px"
	 viewBox="0 0 41 41" style="enable-background:new 0 0 41 41;" xml:space="preserve">
<style type="text/css">
	.st0{fill:#FFFFFF;}
</style>
<g>
	<g>
		<path class="st0" d="M28.8,33.8H4.7c-2.3,0-4.2-1.9-4.2-4.2v-25c0-2.3,1.9-4.2,4.2-4.2H18c0.4,0,0.7,0.2,0.8,0.6l10.8,31.7
			c0.1,0.3,0,0.5-0.1,0.8C29.4,33.7,29.1,33.8,28.8,33.8z M4.7,2.2c-1.4,0-2.5,1.1-2.5,2.5v25c0,1.4,1.1,2.5,2.5,2.5h23l-10.3-30
			H4.7z"/>
	</g>
	<g>
		<path class="st0" d="M36.3,40.5H23c-0.3,0-0.7-0.2-0.8-0.5l-2.5-6.7c-0.2-0.4,0.1-0.9,0.5-1.1c0.4-0.2,0.9,0.1,1.1,0.5l2.3,6.1
			h12.8c1.4,0,2.5-1.1,2.5-2.5v-25c0-1.4-1.1-2.5-2.5-2.5H20.5c-0.5,0-0.8-0.4-0.8-0.8s0.4-0.8,0.8-0.8h15.8c2.3,0,4.2,1.9,4.2,4.2
			v25C40.5,38.6,38.6,40.5,36.3,40.5z"/>
	</g>
	<g>
		<path class="st0" d="M23,40.5c-0.2,0-0.4-0.1-0.5-0.2c-0.3-0.3-0.4-0.8-0.1-1.2l5.8-6.7c0.3-0.3,0.8-0.4,1.2-0.1
			c0.3,0.3,0.4,0.8,0.1,1.2l-5.8,6.7C23.5,40.4,23.2,40.5,23,40.5z"/>
	</g>
	<g>
		<path class="st0" d="M16.3,23.8c-0.3,0-0.7-0.2-0.8-0.6l-3.4-9.5l-3.4,9.5c-0.2,0.4-0.6,0.7-1.1,0.5c-0.4-0.2-0.7-0.6-0.5-1.1
			l4.2-11.7c0.2-0.7,1.3-0.7,1.6,0l4.2,11.7c0.2,0.4-0.1,0.9-0.5,1.1C16.5,23.8,16.4,23.8,16.3,23.8z"/>
	</g>
	<g>
		<path class="st0" d="M13.8,18.8h-3.3c-0.5,0-0.8-0.4-0.8-0.8s0.4-0.8,0.8-0.8h3.3c0.5,0,0.8,0.4,0.8,0.8S14.3,18.8,13.8,18.8z"/>
	</g>
	<g>
		<path class="st0" d="M36.3,18.8H24.7c-0.5,0-0.8-0.4-0.8-0.8s0.4-0.8,0.8-0.8h11.7c0.5,0,0.8,0.4,0.8,0.8S36.8,18.8,36.3,18.8z"/>
	</g>
	<g>
		<path class="st0" d="M29.7,18.8c-0.5,0-0.8-0.4-0.8-0.8v-1.7c0-0.5,0.4-0.8,0.8-0.8c0.5,0,0.8,0.4,0.8,0.8V18
			C30.5,18.5,30.1,18.8,29.7,18.8z"/>
	</g>
	<g>
		<path class="st0" d="M27.2,28.8c-0.3,0-0.5-0.1-0.7-0.3c-0.3-0.4-0.2-0.9,0.2-1.2c3.6-2.6,6.3-7.9,6.3-9.3c0-0.5,0.4-0.8,0.8-0.8
			c0.5,0,0.8,0.4,0.8,0.8c0,2.2-3.2,8-7,10.7C27.5,28.8,27.3,28.8,27.2,28.8z"/>
	</g>
	<g>
		<path class="st0" d="M33.8,30.5c-0.2,0-0.4-0.1-0.6-0.2c-0.6-0.6-5.9-5.5-6.9-7.8c-0.2-0.4,0-0.9,0.5-1.1c0.4-0.2,0.9,0,1.1,0.5
			c0.7,1.7,4.9,5.8,6.5,7.2c0.3,0.3,0.4,0.8,0.1,1.2C34.3,30.4,34.1,30.5,33.8,30.5z"/>
	</g>
</g>
</svg>
