<svg id="Layer_5" data-name="Layer 5" xmlns="http://www.w3.org/2000/svg" viewBox="0 0 33 22.71"><defs><style>.cls-1{fill:#fff;}</style></defs><title>Upload Files</title><metadata><?xpacket begin="﻿" id="W5M0MpCehiHzreSzNTczkc9d"?>
<x:xmpmeta xmlns:x="adobe:ns:meta/" x:xmptk="Adobe XMP Core 5.6-c111 79.158366, 2015/09/25-01:12:00        ">
   <rdf:RDF xmlns:rdf="http://www.w3.org/1999/02/22-rdf-syntax-ns#">
      <rdf:Description rdf:about=""
            xmlns:dc="http://purl.org/dc/elements/1.1/"
            xmlns:xmp="http://ns.adobe.com/xap/1.0/"
            xmlns:xmpMM="http://ns.adobe.com/xap/1.0/mm/"
            xmlns:stEvt="http://ns.adobe.com/xap/1.0/sType/ResourceEvent#">
         <dc:title>
            <rdf:Alt>
               <rdf:li xml:lang="x-default">Upload Files</rdf:li>
            </rdf:Alt>
         </dc:title>
         <xmp:Rating>5</xmp:Rating>
         <xmp:MetadataDate>2016-10-09T10:15:46+03:00</xmp:MetadataDate>
         <xmpMM:InstanceID>xmp.iid:0e6de454-d257-a649-b1ec-7068ad0d972f</xmpMM:InstanceID>
         <xmpMM:DocumentID>xmp.did:0e6de454-d257-a649-b1ec-7068ad0d972f</xmpMM:DocumentID>
         <xmpMM:OriginalDocumentID>xmp.did:0e6de454-d257-a649-b1ec-7068ad0d972f</xmpMM:OriginalDocumentID>
         <xmpMM:History>
            <rdf:Seq>
               <rdf:li>
                  <rdf:Description>
                     <stEvt:action>saved</stEvt:action>
                     <stEvt:instanceID>xmp.iid:0e6de454-d257-a649-b1ec-7068ad0d972f</stEvt:instanceID>
                     <stEvt:when>2016-10-09T10:15:46+03:00</stEvt:when>
                     <stEvt:softwareAgent>Adobe Bridge CC 2015 (Windows)</stEvt:softwareAgent>
                     <stEvt:changed>/metadata</stEvt:changed>
                  </rdf:Description>
               </rdf:li>
            </rdf:Seq>
         </xmpMM:History>
      </rdf:Description>
   </rdf:RDF>
</x:xmpmeta>
                                                                                                    
                                                                                                    
                                                                                                    
                                                                                                    
                                                                                                    
                                                                                                    
                                                                                                    
                                                                                                    
                                                                                                    
                                                                                                    
                                                                                                    
                                                                                                    
                                                                                                    
                                                                                                    
                                                                                                    
                                                                                                    
                                                                                                    
                                                                                                    
                                                                                                    
                                                                                                    
                           
<?xpacket end="w"?></metadata>
<path class="cls-1" d="M25.55,10.24A7.82,7.82,0,0,0,24,10.4a8.54,8.54,0,0,0-7.73-4.26c-5,0-8.24,3.16-9.15,8l-.53,0A5.84,5.84,0,0,0,.65,20,6.15,6.15,0,0,0,6.6,26.18h7.34a.34.34,0,1,0,0-.68H6.6A5.46,5.46,0,0,1,1.33,20,5.17,5.17,0,0,1,6.6,14.82a5.31,5.31,0,0,1,.76.06.34.34,0,0,0,.39-.29c.72-4.7,3.77-7.77,8.53-7.77A7.91,7.91,0,0,1,23.56,11a.34.34,0,0,0,.36.15A7.36,7.36,0,0,1,33,18.28a7.25,7.25,0,0,1-7.42,7.22H20.71a.34.34,0,1,0,0,.68h4.84a7.92,7.92,0,0,0,8.1-7.91A8.08,8.08,0,0,0,25.55,10.24Z" transform="translate(-0.65 -6.14)"/><path class="cls-1" d="M21.84,21.18a.34.34,0,0,0,.25-.57l-4.54-5h0l-.07-.05,0,0h0l-.1,0h-.15l-.08,0h0l-4.54,4.94A.34.34,0,0,0,13,21l4-4.3V28.51a.34.34,0,0,0,.68,0V16.73l3.95,4.34A.34.34,0,0,0,21.84,21.18Z" transform="translate(-0.65 -6.14)"/></svg>