<svg id="Layer_6" data-name="Layer 6" xmlns="http://www.w3.org/2000/svg" viewBox="0 0 29.29 30.58"><defs><style>.cls-1{fill:#fff;}</style></defs><title>What is the purpose</title><path class="cls-1" d="M19.9,26.91a.57.57,0,0,1-.56-.69l1-4.62a.44.44,0,0,1,.09-.19L28.29,12a1.2,1.2,0,0,1,.83-.43h.1a1.24,1.24,0,0,1,.79.29l2.36,2a1.23,1.23,0,0,1,.44.83,1.19,1.19,0,0,1-.27.9L24.66,25a.44.44,0,0,1-.17.12l-4.37,1.79A.58.58,0,0,1,19.9,26.91Zm.39-1,.3-.12a.77.77,0,0,0-.24-.17Zm.24-1.14a1.63,1.63,0,0,1,.87.69l2.05-.84L21,22.53Zm3.71-.61,5.55-6.64L26.85,15l-5.55,6.64Zm6.1-7.3L31.88,15a.34.34,0,0,0,.08-.26.38.38,0,0,0-.14-.25l-2.36-2a.38.38,0,0,0-.24-.09v-.1l0,.1a.35.35,0,0,0-.24.12L27.4,14.37Z" transform="translate(-3.53 -1.59)"/><path class="cls-1" d="M5.28,32.17a1.75,1.75,0,0,1-1.75-1.75V3.34A1.75,1.75,0,0,1,5.28,1.59H24.11a1.75,1.75,0,0,1,1.75,1.75v9.75l-.67.84-.15.18,0-.23V3.34a.89.89,0,0,0-.89-.89H5.28a.89.89,0,0,0-.89.89V30.42a.89.89,0,0,0,.89.89H24.11a.89.89,0,0,0,.89-.89V26.09l.3-.12.39-.48.18-.21v5.14a1.75,1.75,0,0,1-1.75,1.75Z" transform="translate(-3.53 -1.59)"/><path class="cls-1" d="M7.27,5.75a.43.43,0,1,1,0-.86H22.13a.43.43,0,0,1,0,.86Z" transform="translate(-3.53 -1.59)"/><path class="cls-1" d="M7.27,9.05a.43.43,0,1,1,0-.86H22.13a.43.43,0,0,1,0,.86Z" transform="translate(-3.53 -1.59)"/><path class="cls-1" d="M7.27,12.36a.43.43,0,1,1,0-.86H22.13a.43.43,0,0,1,0,.86Z" transform="translate(-3.53 -1.59)"/><path class="cls-1" d="M7.27,15.66a.43.43,0,1,1,0-.86H22.13a.43.43,0,0,1,0,.86Z" transform="translate(-3.53 -1.59)"/><path class="cls-1" d="M11.86,29a5.38,5.38,0,1,1,5.38-5.38A5.39,5.39,0,0,1,11.86,29Zm0-9.91a4.52,4.52,0,1,0,4.52,4.52A4.53,4.53,0,0,0,11.86,19.12Z" transform="translate(-3.53 -1.59)"/><path class="cls-1" d="M11.86,24.08a.43.43,0,0,1-.43-.43V19.8a.43.43,0,0,1,.86,0v3.42H14.5a.43.43,0,1,1,0,.86Z" transform="translate(-3.53 -1.59)"/></svg>