<svg id="Layer_1" data-name="Layer 1" xmlns="http://www.w3.org/2000/svg" xmlns:xlink="http://www.w3.org/1999/xlink" viewBox="0 0 31 31"><defs><style>.cls-1{fill:none;}.cls-2{clip-path:url(#clip-path);}.cls-3{fill:#2b579a;}.cls-4{fill:#fff;}</style><clipPath id="clip-path" transform="translate(-0.5 -0.5)"><rect class="cls-1" x="0.5" y="0.5" width="31" height="31"/></clipPath></defs><title>word</title><g class="cls-2"><circle class="cls-3" cx="15.5" cy="15.5" r="15.5"/></g><g class="cls-2"><path class="cls-4" d="M25.38,8.89H17.82V10.1h6.05V11H17.82v1.21h6.05v.91H17.82v1.21h6.05v.91H17.82v1.21h6.05v.91H17.82v1.21h6.05v.91H17.82v1.21h6.05v.91H17.82v1.51h7.57a.3.3,0,0,0,.3-.3V9.19A.3.3,0,0,0,25.38,8.89Z" transform="translate(-0.5 -0.5)"/></g><g class="cls-2"><path class="cls-4" d="M9.16,12.68,10,16.55l.18,1.1.18-1.07.71-4,1.38-.1.75,4.14.19,1.18.19-1.12.84-4.33,1.34-.09L14,19.78l-1.26-.1L12,15.45l-.22-1.37-.22,1.38-.76,4.09-1.22-.09L7.77,12.77ZM6.31,23.87l10.9,1.82V6.31L6.31,8.13Z" transform="translate(-0.5 -0.5)"/></g></svg>